<svg xmlns="http://www.w3.org/2000/svg" viewBox="0 0 1600 900" role="img" aria-label="abstract-bg-1">
<defs>
  <linearGradient id="bg22" x1="0%" y1="0%" x2="100%" y2="100%">
    <stop offset="0%" stop-color="#071b35"/>
    <stop offset="55%" stop-color="#0b3d91"/>
    <stop offset="100%" stop-color="#123163"/>
  </linearGradient>
  <linearGradient id="sm22" x1="0%" y1="100%" x2="100%" y2="0%">
    <stop offset="0%" stop-color="#8a7124"/>
    <stop offset="50%" stop-color="#d4af37"/>
    <stop offset="100%" stop-color="#f0dfa6"/>
  </linearGradient>
</defs>
<rect width="1600" height="900" fill="url(#bg22)"/>
<circle cx="489" cy="211" r="144" fill="none" stroke="#f0dfa6" stroke-opacity="0.10" stroke-width="1"/><circle cx="814" cy="588" r="142" fill="none" stroke="#f0dfa6" stroke-opacity="0.10" stroke-width="1"/><circle cx="1463" cy="233" r="101" fill="none" stroke="#f0dfa6" stroke-opacity="0.10" stroke-width="1"/><circle cx="1324" cy="633" r="99" fill="none" stroke="#f0dfa6" stroke-opacity="0.10" stroke-width="1"/><circle cx="1018" cy="236" r="76" fill="none" stroke="#f0dfa6" stroke-opacity="0.10" stroke-width="1"/><circle cx="171" cy="366" r="84" fill="none" stroke="#f0dfa6" stroke-opacity="0.10" stroke-width="1"/>
<line x1="0" y1="862" x2="1600" y2="126" stroke="url(#sm22)" stroke-width="1" opacity="0.08"/><line x1="0" y1="21" x2="1600" y2="899" stroke="url(#sm22)" stroke-width="1" opacity="0.12"/><line x1="0" y1="166" x2="1600" y2="109" stroke="url(#sm22)" stroke-width="1" opacity="0.16"/><line x1="0" y1="586" x2="1600" y2="311" stroke="url(#sm22)" stroke-width="1" opacity="0.20"/><line x1="0" y1="801" x2="1600" y2="209" stroke="url(#sm22)" stroke-width="1" opacity="0.24"/>
<circle cx="1535" cy="288" r="2.2" fill="#f0dfa6" opacity="0.47"/><circle cx="1096" cy="831" r="2.4" fill="#f0dfa6" opacity="0.12"/><circle cx="1410" cy="531" r="1.6" fill="#f0dfa6" opacity="0.18"/><circle cx="1360" cy="525" r="2.9" fill="#f0dfa6" opacity="0.41"/><circle cx="1538" cy="510" r="2.4" fill="#f0dfa6" opacity="0.34"/><circle cx="413" cy="861" r="1.6" fill="#f0dfa6" opacity="0.41"/><circle cx="1527" cy="586" r="1.3" fill="#f0dfa6" opacity="0.43"/><circle cx="1068" cy="167" r="1.1" fill="#f0dfa6" opacity="0.31"/><circle cx="52" cy="833" r="2.0" fill="#f0dfa6" opacity="0.31"/><circle cx="655" cy="595" r="2.8" fill="#f0dfa6" opacity="0.22"/><circle cx="598" cy="524" r="1.6" fill="#f0dfa6" opacity="0.34"/><circle cx="869" cy="390" r="2.3" fill="#f0dfa6" opacity="0.31"/><circle cx="141" cy="897" r="1.7" fill="#f0dfa6" opacity="0.27"/><circle cx="644" cy="837" r="2.9" fill="#f0dfa6" opacity="0.30"/><circle cx="641" cy="87" r="2.8" fill="#f0dfa6" opacity="0.17"/><circle cx="875" cy="314" r="1.7" fill="#f0dfa6" opacity="0.24"/><circle cx="306" cy="33" r="2.1" fill="#f0dfa6" opacity="0.42"/><circle cx="1035" cy="181" r="2.4" fill="#f0dfa6" opacity="0.12"/><circle cx="657" cy="745" r="2.8" fill="#f0dfa6" opacity="0.28"/><circle cx="1354" cy="449" r="2.0" fill="#f0dfa6" opacity="0.33"/><circle cx="1586" cy="669" r="1.9" fill="#f0dfa6" opacity="0.39"/><circle cx="1029" cy="318" r="2.6" fill="#f0dfa6" opacity="0.43"/><circle cx="973" cy="848" r="1.0" fill="#f0dfa6" opacity="0.30"/><circle cx="1015" cy="307" r="1.3" fill="#f0dfa6" opacity="0.38"/><circle cx="695" cy="242" r="1.1" fill="#f0dfa6" opacity="0.49"/><circle cx="564" cy="106" r="1.4" fill="#f0dfa6" opacity="0.20"/><circle cx="1386" cy="163" r="1.6" fill="#f0dfa6" opacity="0.14"/><circle cx="752" cy="187" r="1.7" fill="#f0dfa6" opacity="0.39"/><circle cx="1480" cy="751" r="1.1" fill="#f0dfa6" opacity="0.25"/><circle cx="1358" cy="30" r="1.4" fill="#f0dfa6" opacity="0.30"/><circle cx="612" cy="675" r="2.4" fill="#f0dfa6" opacity="0.29"/><circle cx="398" cy="208" r="1.5" fill="#f0dfa6" opacity="0.13"/><circle cx="1065" cy="142" r="2.8" fill="#f0dfa6" opacity="0.36"/><circle cx="91" cy="449" r="2.2" fill="#f0dfa6" opacity="0.12"/><circle cx="779" cy="27" r="2.5" fill="#f0dfa6" opacity="0.10"/><circle cx="1011" cy="887" r="2.7" fill="#f0dfa6" opacity="0.19"/><circle cx="855" cy="126" r="1.7" fill="#f0dfa6" opacity="0.45"/><circle cx="1308" cy="8" r="1.8" fill="#f0dfa6" opacity="0.36"/><circle cx="281" cy="722" r="2.8" fill="#f0dfa6" opacity="0.32"/><circle cx="579" cy="764" r="2.0" fill="#f0dfa6" opacity="0.18"/>
<line x1="0" y1="765" x2="1600" y2="90" stroke="url(#sm22)" stroke-width="3" opacity="0.6"/>
</svg>