<svg xmlns="http://www.w3.org/2000/svg" viewBox="0 0 1600 900" role="img" aria-label="abstract-bg-2">
<defs>
  <linearGradient id="bg33" x1="0%" y1="0%" x2="100%" y2="100%">
    <stop offset="0%" stop-color="#071b35"/>
    <stop offset="55%" stop-color="#0b3d91"/>
    <stop offset="100%" stop-color="#123163"/>
  </linearGradient>
  <linearGradient id="sm33" x1="0%" y1="100%" x2="100%" y2="0%">
    <stop offset="0%" stop-color="#8a7124"/>
    <stop offset="50%" stop-color="#d4af37"/>
    <stop offset="100%" stop-color="#f0dfa6"/>
  </linearGradient>
</defs>
<rect width="1600" height="900" fill="url(#bg33)"/>
<circle cx="606" cy="277" r="91" fill="none" stroke="#f0dfa6" stroke-opacity="0.10" stroke-width="1"/><circle cx="1267" cy="106" r="105" fill="none" stroke="#f0dfa6" stroke-opacity="0.10" stroke-width="1"/><circle cx="636" cy="297" r="132" fill="none" stroke="#f0dfa6" stroke-opacity="0.10" stroke-width="1"/><circle cx="414" cy="130" r="76" fill="none" stroke="#f0dfa6" stroke-opacity="0.10" stroke-width="1"/><circle cx="1470" cy="342" r="72" fill="none" stroke="#f0dfa6" stroke-opacity="0.10" stroke-width="1"/><circle cx="1459" cy="552" r="156" fill="none" stroke="#f0dfa6" stroke-opacity="0.10" stroke-width="1"/>
<line x1="0" y1="513" x2="1600" y2="569" stroke="url(#sm33)" stroke-width="1" opacity="0.08"/><line x1="0" y1="735" x2="1600" y2="250" stroke="url(#sm33)" stroke-width="1" opacity="0.12"/><line x1="0" y1="587" x2="1600" y2="802" stroke="url(#sm33)" stroke-width="1" opacity="0.16"/><line x1="0" y1="818" x2="1600" y2="168" stroke="url(#sm33)" stroke-width="1" opacity="0.20"/><line x1="0" y1="587" x2="1600" y2="555" stroke="url(#sm33)" stroke-width="1" opacity="0.24"/>
<circle cx="805" cy="870" r="2.1" fill="#f0dfa6" opacity="0.28"/><circle cx="1510" cy="572" r="1.6" fill="#f0dfa6" opacity="0.22"/><circle cx="794" cy="47" r="2.2" fill="#f0dfa6" opacity="0.39"/><circle cx="682" cy="762" r="2.9" fill="#f0dfa6" opacity="0.32"/><circle cx="1090" cy="106" r="1.1" fill="#f0dfa6" opacity="0.49"/><circle cx="455" cy="192" r="2.8" fill="#f0dfa6" opacity="0.40"/><circle cx="197" cy="290" r="1.5" fill="#f0dfa6" opacity="0.21"/><circle cx="10" cy="472" r="1.6" fill="#f0dfa6" opacity="0.26"/><circle cx="297" cy="99" r="1.1" fill="#f0dfa6" opacity="0.45"/><circle cx="1196" cy="504" r="1.2" fill="#f0dfa6" opacity="0.16"/><circle cx="191" cy="285" r="1.1" fill="#f0dfa6" opacity="0.21"/><circle cx="325" cy="174" r="2.3" fill="#f0dfa6" opacity="0.28"/><circle cx="758" cy="322" r="2.1" fill="#f0dfa6" opacity="0.41"/><circle cx="493" cy="63" r="2.0" fill="#f0dfa6" opacity="0.25"/><circle cx="1249" cy="100" r="2.7" fill="#f0dfa6" opacity="0.11"/><circle cx="868" cy="399" r="1.6" fill="#f0dfa6" opacity="0.46"/><circle cx="1123" cy="147" r="2.0" fill="#f0dfa6" opacity="0.34"/><circle cx="54" cy="79" r="2.2" fill="#f0dfa6" opacity="0.39"/><circle cx="740" cy="380" r="2.0" fill="#f0dfa6" opacity="0.20"/><circle cx="1402" cy="866" r="2.0" fill="#f0dfa6" opacity="0.11"/><circle cx="635" cy="723" r="1.6" fill="#f0dfa6" opacity="0.14"/><circle cx="296" cy="641" r="2.2" fill="#f0dfa6" opacity="0.21"/><circle cx="998" cy="685" r="2.9" fill="#f0dfa6" opacity="0.43"/><circle cx="694" cy="729" r="2.9" fill="#f0dfa6" opacity="0.45"/><circle cx="1201" cy="528" r="2.0" fill="#f0dfa6" opacity="0.44"/><circle cx="1000" cy="649" r="1.5" fill="#f0dfa6" opacity="0.14"/><circle cx="433" cy="525" r="2.1" fill="#f0dfa6" opacity="0.18"/><circle cx="302" cy="855" r="1.1" fill="#f0dfa6" opacity="0.47"/><circle cx="1235" cy="516" r="3.0" fill="#f0dfa6" opacity="0.37"/><circle cx="11" cy="845" r="1.8" fill="#f0dfa6" opacity="0.47"/><circle cx="1302" cy="124" r="1.1" fill="#f0dfa6" opacity="0.11"/><circle cx="1249" cy="712" r="1.5" fill="#f0dfa6" opacity="0.15"/><circle cx="586" cy="719" r="2.5" fill="#f0dfa6" opacity="0.45"/><circle cx="1549" cy="679" r="2.7" fill="#f0dfa6" opacity="0.11"/><circle cx="10" cy="776" r="2.2" fill="#f0dfa6" opacity="0.23"/><circle cx="205" cy="299" r="1.7" fill="#f0dfa6" opacity="0.30"/><circle cx="720" cy="182" r="1.2" fill="#f0dfa6" opacity="0.18"/><circle cx="205" cy="90" r="1.8" fill="#f0dfa6" opacity="0.15"/><circle cx="1280" cy="490" r="1.9" fill="#f0dfa6" opacity="0.36"/><circle cx="376" cy="21" r="1.2" fill="#f0dfa6" opacity="0.23"/>
<line x1="0" y1="765" x2="1600" y2="90" stroke="url(#sm33)" stroke-width="3" opacity="0.6"/>
</svg>