<svg xmlns="http://www.w3.org/2000/svg" viewBox="0 0 800 600" role="img" aria-label="Branding">
<defs>
  <linearGradient id="bgGrad" x1="0%" y1="0%" x2="100%" y2="100%">
    <stop offset="0%" stop-color="#071b35"/>
    <stop offset="55%" stop-color="#0b3d91"/>
    <stop offset="100%" stop-color="#123163"/>
  </linearGradient>
  <linearGradient id="seam" x1="0%" y1="100%" x2="100%" y2="0%">
    <stop offset="0%" stop-color="#8a7124"/>
    <stop offset="50%" stop-color="#d4af37"/>
    <stop offset="100%" stop-color="#f0dfa6"/>
  </linearGradient>
  <radialGradient id="glow" cx="50%" cy="50%" r="60%">
    <stop offset="0%" stop-color="#d4af37" stop-opacity="0.35"/>
    <stop offset="100%" stop-color="#d4af37" stop-opacity="0"/>
  </radialGradient>
  <linearGradient id="glass" x1="0%" y1="0%" x2="0%" y2="100%">
    <stop offset="0%" stop-color="#ffffff" stop-opacity="0.14"/>
    <stop offset="100%" stop-color="#ffffff" stop-opacity="0.02"/>
  </linearGradient>
</defs>
<rect width="800" height="600" fill="url(#bgGrad)"/>
<rect width="800" height="600" fill="url(#glow)"/>
<circle cx="153" cy="512" r="2.6" fill="#f0dfa6" opacity="0.41"/>
<circle cx="620" cy="501" r="2.0" fill="#f0dfa6" opacity="0.42"/>
<circle cx="177" cy="139" r="2.6" fill="#f0dfa6" opacity="0.53"/>
<circle cx="463" cy="197" r="2.7" fill="#f0dfa6" opacity="0.50"/>
<circle cx="89" cy="451" r="2.1" fill="#f0dfa6" opacity="0.31"/>
<circle cx="391" cy="505" r="1.6" fill="#f0dfa6" opacity="0.28"/>
<circle cx="597" cy="184" r="2.9" fill="#f0dfa6" opacity="0.28"/>
<circle cx="385" cy="324" r="1.7" fill="#f0dfa6" opacity="0.30"/>
<circle cx="122" cy="166" r="1.6" fill="#f0dfa6" opacity="0.24"/>
<circle cx="765" cy="256" r="2.0" fill="#f0dfa6" opacity="0.41"/>
<circle cx="600" cy="473" r="2.1" fill="#f0dfa6" opacity="0.21"/>
<circle cx="402" cy="318" r="1.4" fill="#f0dfa6" opacity="0.32"/>
<circle cx="681" cy="102" r="2.9" fill="#f0dfa6" opacity="0.35"/>
<circle cx="606" cy="574" r="1.3" fill="#f0dfa6" opacity="0.28"/>
<line x1="0" y1="468" x2="800" y2="132" stroke="url(#seam)" stroke-width="2.5" opacity="0.55"/>
<circle cx="400" cy="300" r="150" fill="url(#glass)" stroke="#f0dfa6" stroke-opacity="0.25" stroke-width="1"/>
<g transform="translate(352.0,252.0) scale(2)" stroke="#f0dfa6" stroke-width="1.6" fill="none" stroke-linecap="round" stroke-linejoin="round">
<path d="M24 6l5.5 11.4L42 19l-9 9 2 12.6L24 35 13 40.6 15 28l-9-9 12.5-1.6z"/>
</g>
<text x="40" y="560" font-family="Montserrat, sans-serif" font-size="22" font-weight="700" fill="#ffffff">Branding</text>
<text x="40" y="584" font-family="Poppins, sans-serif" font-size="13" fill="#aebbd4">Identity Systems That Endure</text>
</svg>