<svg xmlns="http://www.w3.org/2000/svg" viewBox="0 0 800 600" role="img" aria-label="Strategy Session">
<defs>
  <linearGradient id="bgGrad" x1="0%" y1="0%" x2="100%" y2="100%">
    <stop offset="0%" stop-color="#071b35"/>
    <stop offset="55%" stop-color="#0b3d91"/>
    <stop offset="100%" stop-color="#123163"/>
  </linearGradient>
  <linearGradient id="seam" x1="0%" y1="100%" x2="100%" y2="0%">
    <stop offset="0%" stop-color="#8a7124"/>
    <stop offset="50%" stop-color="#d4af37"/>
    <stop offset="100%" stop-color="#f0dfa6"/>
  </linearGradient>
  <radialGradient id="glow" cx="50%" cy="50%" r="60%">
    <stop offset="0%" stop-color="#d4af37" stop-opacity="0.35"/>
    <stop offset="100%" stop-color="#d4af37" stop-opacity="0"/>
  </radialGradient>
  <linearGradient id="glass" x1="0%" y1="0%" x2="0%" y2="100%">
    <stop offset="0%" stop-color="#ffffff" stop-opacity="0.14"/>
    <stop offset="100%" stop-color="#ffffff" stop-opacity="0.02"/>
  </linearGradient>
</defs>
<rect width="800" height="600" fill="url(#bgGrad)"/>
<rect width="800" height="600" fill="url(#glow)"/>
<circle cx="419" cy="212" r="1.3" fill="#f0dfa6" opacity="0.26"/>
<circle cx="411" cy="289" r="2.3" fill="#f0dfa6" opacity="0.20"/>
<circle cx="693" cy="239" r="2.3" fill="#f0dfa6" opacity="0.20"/>
<circle cx="398" cy="287" r="2.9" fill="#f0dfa6" opacity="0.24"/>
<circle cx="430" cy="300" r="3.0" fill="#f0dfa6" opacity="0.32"/>
<circle cx="430" cy="296" r="1.5" fill="#f0dfa6" opacity="0.27"/>
<circle cx="685" cy="350" r="3.0" fill="#f0dfa6" opacity="0.18"/>
<circle cx="211" cy="38" r="1.4" fill="#f0dfa6" opacity="0.48"/>
<circle cx="497" cy="462" r="2.7" fill="#f0dfa6" opacity="0.20"/>
<circle cx="336" cy="485" r="2.5" fill="#f0dfa6" opacity="0.51"/>
<circle cx="421" cy="429" r="3.2" fill="#f0dfa6" opacity="0.31"/>
<circle cx="746" cy="254" r="3.1" fill="#f0dfa6" opacity="0.27"/>
<circle cx="320" cy="399" r="1.9" fill="#f0dfa6" opacity="0.24"/>
<circle cx="237" cy="378" r="2.1" fill="#f0dfa6" opacity="0.40"/>
<line x1="0" y1="468" x2="800" y2="132" stroke="url(#seam)" stroke-width="2.5" opacity="0.55"/>
<circle cx="400" cy="300" r="150" fill="url(#glass)" stroke="#f0dfa6" stroke-opacity="0.25" stroke-width="1"/>
<g transform="translate(352.0,252.0) scale(2)" stroke="#f0dfa6" stroke-width="1.6" fill="none" stroke-linecap="round" stroke-linejoin="round">
<circle cx="14" cy="16" r="6"/><circle cx="34" cy="16" r="6"/><path d="M6 40c0-8 6-12 8-12M42 40c0-8-6-12-8-12"/><path d="M18 30h12v10H18z"/>
</g>
<text x="40" y="560" font-family="Montserrat, sans-serif" font-size="22" font-weight="700" fill="#ffffff">Strategy Session</text>
<text x="40" y="584" font-family="Poppins, sans-serif" font-size="13" fill="#aebbd4">Aligning on Vision &amp; Roadmap</text>
</svg>