<svg xmlns="http://www.w3.org/2000/svg" viewBox="0 0 800 600" role="img" aria-label="Our Team">
<defs>
  <linearGradient id="bgGrad" x1="0%" y1="0%" x2="100%" y2="100%">
    <stop offset="0%" stop-color="#071b35"/>
    <stop offset="55%" stop-color="#0b3d91"/>
    <stop offset="100%" stop-color="#123163"/>
  </linearGradient>
  <linearGradient id="seam" x1="0%" y1="100%" x2="100%" y2="0%">
    <stop offset="0%" stop-color="#8a7124"/>
    <stop offset="50%" stop-color="#d4af37"/>
    <stop offset="100%" stop-color="#f0dfa6"/>
  </linearGradient>
  <radialGradient id="glow" cx="50%" cy="50%" r="60%">
    <stop offset="0%" stop-color="#d4af37" stop-opacity="0.35"/>
    <stop offset="100%" stop-color="#d4af37" stop-opacity="0"/>
  </radialGradient>
  <linearGradient id="glass" x1="0%" y1="0%" x2="0%" y2="100%">
    <stop offset="0%" stop-color="#ffffff" stop-opacity="0.14"/>
    <stop offset="100%" stop-color="#ffffff" stop-opacity="0.02"/>
  </linearGradient>
</defs>
<rect width="800" height="600" fill="url(#bgGrad)"/>
<rect width="800" height="600" fill="url(#glow)"/>
<circle cx="497" cy="318" r="1.5" fill="#f0dfa6" opacity="0.16"/>
<circle cx="129" cy="189" r="1.4" fill="#f0dfa6" opacity="0.33"/>
<circle cx="694" cy="522" r="2.8" fill="#f0dfa6" opacity="0.54"/>
<circle cx="390" cy="402" r="1.4" fill="#f0dfa6" opacity="0.38"/>
<circle cx="400" cy="416" r="3.2" fill="#f0dfa6" opacity="0.15"/>
<circle cx="300" cy="265" r="2.8" fill="#f0dfa6" opacity="0.28"/>
<circle cx="450" cy="178" r="1.5" fill="#f0dfa6" opacity="0.27"/>
<circle cx="607" cy="114" r="1.2" fill="#f0dfa6" opacity="0.37"/>
<circle cx="507" cy="64" r="1.9" fill="#f0dfa6" opacity="0.28"/>
<circle cx="779" cy="107" r="1.9" fill="#f0dfa6" opacity="0.40"/>
<circle cx="437" cy="425" r="2.3" fill="#f0dfa6" opacity="0.25"/>
<circle cx="193" cy="79" r="1.3" fill="#f0dfa6" opacity="0.20"/>
<circle cx="540" cy="40" r="2.5" fill="#f0dfa6" opacity="0.45"/>
<circle cx="621" cy="24" r="2.0" fill="#f0dfa6" opacity="0.27"/>
<line x1="0" y1="468" x2="800" y2="132" stroke="url(#seam)" stroke-width="2.5" opacity="0.55"/>
<circle cx="400" cy="300" r="150" fill="url(#glass)" stroke="#f0dfa6" stroke-opacity="0.25" stroke-width="1"/>
<g transform="translate(352.0,252.0) scale(2)" stroke="#f0dfa6" stroke-width="1.6" fill="none" stroke-linecap="round" stroke-linejoin="round">
<circle cx="14" cy="18" r="7"/><circle cx="34" cy="18" r="7"/><circle cx="24" cy="34" r="7"/>
</g>
<text x="40" y="560" font-family="Montserrat, sans-serif" font-size="22" font-weight="700" fill="#ffffff">Our Team</text>
<text x="40" y="584" font-family="Poppins, sans-serif" font-size="13" fill="#aebbd4">Strategists, Makers &amp; Engineers</text>
</svg>