<svg xmlns="http://www.w3.org/2000/svg" viewBox="0 0 800 600" role="img" aria-label="Product Dashboard">
<defs>
  <linearGradient id="bgGrad" x1="0%" y1="0%" x2="100%" y2="100%">
    <stop offset="0%" stop-color="#071b35"/>
    <stop offset="55%" stop-color="#0b3d91"/>
    <stop offset="100%" stop-color="#123163"/>
  </linearGradient>
  <linearGradient id="seam" x1="0%" y1="100%" x2="100%" y2="0%">
    <stop offset="0%" stop-color="#8a7124"/>
    <stop offset="50%" stop-color="#d4af37"/>
    <stop offset="100%" stop-color="#f0dfa6"/>
  </linearGradient>
  <radialGradient id="glow" cx="50%" cy="50%" r="60%">
    <stop offset="0%" stop-color="#d4af37" stop-opacity="0.35"/>
    <stop offset="100%" stop-color="#d4af37" stop-opacity="0"/>
  </radialGradient>
  <linearGradient id="glass" x1="0%" y1="0%" x2="0%" y2="100%">
    <stop offset="0%" stop-color="#ffffff" stop-opacity="0.14"/>
    <stop offset="100%" stop-color="#ffffff" stop-opacity="0.02"/>
  </linearGradient>
</defs>
<rect width="800" height="600" fill="url(#bgGrad)"/>
<rect width="800" height="600" fill="url(#glow)"/>
<circle cx="96" cy="283" r="3.2" fill="#f0dfa6" opacity="0.20"/>
<circle cx="172" cy="471" r="2.5" fill="#f0dfa6" opacity="0.46"/>
<circle cx="706" cy="254" r="2.8" fill="#f0dfa6" opacity="0.50"/>
<circle cx="449" cy="329" r="3.1" fill="#f0dfa6" opacity="0.54"/>
<circle cx="392" cy="279" r="2.6" fill="#f0dfa6" opacity="0.18"/>
<circle cx="366" cy="40" r="2.4" fill="#f0dfa6" opacity="0.17"/>
<circle cx="283" cy="459" r="1.6" fill="#f0dfa6" opacity="0.54"/>
<circle cx="329" cy="29" r="2.3" fill="#f0dfa6" opacity="0.46"/>
<circle cx="392" cy="576" r="1.2" fill="#f0dfa6" opacity="0.20"/>
<circle cx="388" cy="568" r="2.7" fill="#f0dfa6" opacity="0.36"/>
<circle cx="660" cy="125" r="2.5" fill="#f0dfa6" opacity="0.52"/>
<circle cx="243" cy="144" r="2.2" fill="#f0dfa6" opacity="0.20"/>
<circle cx="620" cy="301" r="2.8" fill="#f0dfa6" opacity="0.31"/>
<circle cx="476" cy="277" r="3.0" fill="#f0dfa6" opacity="0.26"/>
<line x1="0" y1="468" x2="800" y2="132" stroke="url(#seam)" stroke-width="2.5" opacity="0.55"/>
<circle cx="400" cy="300" r="150" fill="url(#glass)" stroke="#f0dfa6" stroke-opacity="0.25" stroke-width="1"/>
<g transform="translate(352.0,252.0) scale(2)" stroke="#f0dfa6" stroke-width="1.6" fill="none" stroke-linecap="round" stroke-linejoin="round">
<rect x="4" y="8" width="40" height="32" rx="2"/><path d="M10 32V20M18 32V14M26 32V24M34 32V18"/>
</g>
<text x="40" y="560" font-family="Montserrat, sans-serif" font-size="22" font-weight="700" fill="#ffffff">Product Dashboard</text>
<text x="40" y="584" font-family="Poppins, sans-serif" font-size="13" fill="#aebbd4">Data, Visualised</text>
</svg>