<svg xmlns="http://www.w3.org/2000/svg" viewBox="0 0 800 600" role="img" aria-label="Development">
<defs>
  <linearGradient id="bgGrad" x1="0%" y1="0%" x2="100%" y2="100%">
    <stop offset="0%" stop-color="#071b35"/>
    <stop offset="55%" stop-color="#0b3d91"/>
    <stop offset="100%" stop-color="#123163"/>
  </linearGradient>
  <linearGradient id="seam" x1="0%" y1="100%" x2="100%" y2="0%">
    <stop offset="0%" stop-color="#8a7124"/>
    <stop offset="50%" stop-color="#d4af37"/>
    <stop offset="100%" stop-color="#f0dfa6"/>
  </linearGradient>
  <radialGradient id="glow" cx="50%" cy="50%" r="60%">
    <stop offset="0%" stop-color="#d4af37" stop-opacity="0.35"/>
    <stop offset="100%" stop-color="#d4af37" stop-opacity="0"/>
  </radialGradient>
  <linearGradient id="glass" x1="0%" y1="0%" x2="0%" y2="100%">
    <stop offset="0%" stop-color="#ffffff" stop-opacity="0.14"/>
    <stop offset="100%" stop-color="#ffffff" stop-opacity="0.02"/>
  </linearGradient>
</defs>
<rect width="800" height="600" fill="url(#bgGrad)"/>
<rect width="800" height="600" fill="url(#glow)"/>
<circle cx="232" cy="457" r="1.3" fill="#f0dfa6" opacity="0.47"/>
<circle cx="213" cy="337" r="2.9" fill="#f0dfa6" opacity="0.25"/>
<circle cx="537" cy="562" r="2.5" fill="#f0dfa6" opacity="0.29"/>
<circle cx="155" cy="578" r="1.8" fill="#f0dfa6" opacity="0.49"/>
<circle cx="441" cy="105" r="2.0" fill="#f0dfa6" opacity="0.30"/>
<circle cx="487" cy="146" r="2.3" fill="#f0dfa6" opacity="0.37"/>
<circle cx="209" cy="488" r="2.2" fill="#f0dfa6" opacity="0.48"/>
<circle cx="703" cy="423" r="2.5" fill="#f0dfa6" opacity="0.43"/>
<circle cx="138" cy="428" r="3.1" fill="#f0dfa6" opacity="0.42"/>
<circle cx="525" cy="478" r="2.4" fill="#f0dfa6" opacity="0.53"/>
<circle cx="671" cy="38" r="2.7" fill="#f0dfa6" opacity="0.36"/>
<circle cx="504" cy="222" r="3.1" fill="#f0dfa6" opacity="0.25"/>
<circle cx="432" cy="382" r="2.1" fill="#f0dfa6" opacity="0.16"/>
<circle cx="47" cy="318" r="2.8" fill="#f0dfa6" opacity="0.20"/>
<line x1="0" y1="468" x2="800" y2="132" stroke="url(#seam)" stroke-width="2.5" opacity="0.55"/>
<circle cx="400" cy="300" r="150" fill="url(#glass)" stroke="#f0dfa6" stroke-opacity="0.25" stroke-width="1"/>
<g transform="translate(352.0,252.0) scale(2)" stroke="#f0dfa6" stroke-width="1.6" fill="none" stroke-linecap="round" stroke-linejoin="round">
<path d="M16 14l-10 10 10 10"/><path d="M32 14l10 10-10 10"/><path d="M28 10l-8 28"/>
</g>
<text x="40" y="560" font-family="Montserrat, sans-serif" font-size="22" font-weight="700" fill="#ffffff">Development</text>
<text x="40" y="584" font-family="Poppins, sans-serif" font-size="13" fill="#aebbd4">Clean, Scalable Code</text>
</svg>