<svg xmlns="http://www.w3.org/2000/svg" viewBox="0 0 800 600" role="img" aria-label="Drone Shoot">
<defs>
  <linearGradient id="bgGrad" x1="0%" y1="0%" x2="100%" y2="100%">
    <stop offset="0%" stop-color="#071b35"/>
    <stop offset="55%" stop-color="#0b3d91"/>
    <stop offset="100%" stop-color="#123163"/>
  </linearGradient>
  <linearGradient id="seam" x1="0%" y1="100%" x2="100%" y2="0%">
    <stop offset="0%" stop-color="#8a7124"/>
    <stop offset="50%" stop-color="#d4af37"/>
    <stop offset="100%" stop-color="#f0dfa6"/>
  </linearGradient>
  <radialGradient id="glow" cx="50%" cy="50%" r="60%">
    <stop offset="0%" stop-color="#d4af37" stop-opacity="0.35"/>
    <stop offset="100%" stop-color="#d4af37" stop-opacity="0"/>
  </radialGradient>
  <linearGradient id="glass" x1="0%" y1="0%" x2="0%" y2="100%">
    <stop offset="0%" stop-color="#ffffff" stop-opacity="0.14"/>
    <stop offset="100%" stop-color="#ffffff" stop-opacity="0.02"/>
  </linearGradient>
</defs>
<rect width="800" height="600" fill="url(#bgGrad)"/>
<rect width="800" height="600" fill="url(#glow)"/>
<circle cx="169" cy="68" r="2.4" fill="#f0dfa6" opacity="0.44"/>
<circle cx="572" cy="303" r="2.6" fill="#f0dfa6" opacity="0.46"/>
<circle cx="379" cy="399" r="1.3" fill="#f0dfa6" opacity="0.50"/>
<circle cx="737" cy="247" r="1.5" fill="#f0dfa6" opacity="0.45"/>
<circle cx="223" cy="312" r="1.2" fill="#f0dfa6" opacity="0.53"/>
<circle cx="278" cy="114" r="2.6" fill="#f0dfa6" opacity="0.33"/>
<circle cx="537" cy="492" r="1.7" fill="#f0dfa6" opacity="0.18"/>
<circle cx="214" cy="356" r="2.0" fill="#f0dfa6" opacity="0.35"/>
<circle cx="765" cy="215" r="1.5" fill="#f0dfa6" opacity="0.21"/>
<circle cx="703" cy="119" r="3.2" fill="#f0dfa6" opacity="0.27"/>
<circle cx="296" cy="52" r="2.5" fill="#f0dfa6" opacity="0.38"/>
<circle cx="392" cy="402" r="2.4" fill="#f0dfa6" opacity="0.47"/>
<circle cx="444" cy="415" r="2.8" fill="#f0dfa6" opacity="0.30"/>
<circle cx="139" cy="193" r="3.0" fill="#f0dfa6" opacity="0.21"/>
<line x1="0" y1="468" x2="800" y2="132" stroke="url(#seam)" stroke-width="2.5" opacity="0.55"/>
<circle cx="400" cy="300" r="150" fill="url(#glass)" stroke="#f0dfa6" stroke-opacity="0.25" stroke-width="1"/>
<g transform="translate(352.0,252.0) scale(2)" stroke="#f0dfa6" stroke-width="1.6" fill="none" stroke-linecap="round" stroke-linejoin="round">
<circle cx="24" cy="24" r="5"/><path d="M14 14l-8-6M34 14l8-6M14 34l-8 6M34 34l8 6"/>
</g>
<text x="40" y="560" font-family="Montserrat, sans-serif" font-size="22" font-weight="700" fill="#ffffff">Drone Shoot</text>
<text x="40" y="584" font-family="Poppins, sans-serif" font-size="13" fill="#aebbd4">Aerial Cinematography</text>
</svg>