<svg xmlns="http://www.w3.org/2000/svg" viewBox="0 0 1600 900" role="img" aria-label="hero-background">
<defs>
  <linearGradient id="bg11" x1="0%" y1="0%" x2="100%" y2="100%">
    <stop offset="0%" stop-color="#071b35"/>
    <stop offset="55%" stop-color="#0b3d91"/>
    <stop offset="100%" stop-color="#123163"/>
  </linearGradient>
  <linearGradient id="sm11" x1="0%" y1="100%" x2="100%" y2="0%">
    <stop offset="0%" stop-color="#8a7124"/>
    <stop offset="50%" stop-color="#d4af37"/>
    <stop offset="100%" stop-color="#f0dfa6"/>
  </linearGradient>
</defs>
<rect width="1600" height="900" fill="url(#bg11)"/>
<circle cx="1211" cy="741" r="95" fill="none" stroke="#f0dfa6" stroke-opacity="0.10" stroke-width="1"/><circle cx="1059" cy="731" r="147" fill="none" stroke="#f0dfa6" stroke-opacity="0.10" stroke-width="1"/><circle cx="684" cy="653" r="146" fill="none" stroke="#f0dfa6" stroke-opacity="0.10" stroke-width="1"/><circle cx="902" cy="537" r="98" fill="none" stroke="#f0dfa6" stroke-opacity="0.10" stroke-width="1"/><circle cx="916" cy="526" r="68" fill="none" stroke="#f0dfa6" stroke-opacity="0.10" stroke-width="1"/><circle cx="995" cy="795" r="148" fill="none" stroke="#f0dfa6" stroke-opacity="0.10" stroke-width="1"/>
<line x1="0" y1="407" x2="1600" y2="504" stroke="url(#sm11)" stroke-width="1" opacity="0.08"/><line x1="0" y1="832" x2="1600" y2="419" stroke="url(#sm11)" stroke-width="1" opacity="0.12"/><line x1="0" y1="457" x2="1600" y2="529" stroke="url(#sm11)" stroke-width="1" opacity="0.16"/><line x1="0" y1="166" x2="1600" y2="461" stroke="url(#sm11)" stroke-width="1" opacity="0.20"/><line x1="0" y1="567" x2="1600" y2="714" stroke="url(#sm11)" stroke-width="1" opacity="0.24"/>
<circle cx="151" cy="273" r="1.2" fill="#f0dfa6" opacity="0.42"/><circle cx="1110" cy="38" r="3.0" fill="#f0dfa6" opacity="0.49"/><circle cx="1046" cy="554" r="1.3" fill="#f0dfa6" opacity="0.11"/><circle cx="845" cy="54" r="1.4" fill="#f0dfa6" opacity="0.20"/><circle cx="48" cy="418" r="1.9" fill="#f0dfa6" opacity="0.44"/><circle cx="831" cy="576" r="2.0" fill="#f0dfa6" opacity="0.36"/><circle cx="732" cy="250" r="3.0" fill="#f0dfa6" opacity="0.50"/><circle cx="1344" cy="637" r="1.6" fill="#f0dfa6" opacity="0.19"/><circle cx="462" cy="63" r="2.5" fill="#f0dfa6" opacity="0.26"/><circle cx="1355" cy="348" r="2.9" fill="#f0dfa6" opacity="0.44"/><circle cx="1" cy="189" r="2.8" fill="#f0dfa6" opacity="0.29"/><circle cx="1569" cy="358" r="1.1" fill="#f0dfa6" opacity="0.35"/><circle cx="1246" cy="243" r="1.2" fill="#f0dfa6" opacity="0.23"/><circle cx="1543" cy="682" r="1.2" fill="#f0dfa6" opacity="0.20"/><circle cx="162" cy="54" r="2.6" fill="#f0dfa6" opacity="0.17"/><circle cx="895" cy="403" r="1.4" fill="#f0dfa6" opacity="0.39"/><circle cx="210" cy="579" r="1.2" fill="#f0dfa6" opacity="0.27"/><circle cx="341" cy="243" r="2.9" fill="#f0dfa6" opacity="0.42"/><circle cx="487" cy="796" r="1.4" fill="#f0dfa6" opacity="0.26"/><circle cx="1367" cy="578" r="1.2" fill="#f0dfa6" opacity="0.50"/><circle cx="341" cy="232" r="2.5" fill="#f0dfa6" opacity="0.23"/><circle cx="474" cy="66" r="1.2" fill="#f0dfa6" opacity="0.33"/><circle cx="389" cy="541" r="1.7" fill="#f0dfa6" opacity="0.28"/><circle cx="1535" cy="435" r="2.1" fill="#f0dfa6" opacity="0.45"/><circle cx="293" cy="139" r="2.8" fill="#f0dfa6" opacity="0.43"/><circle cx="399" cy="171" r="2.5" fill="#f0dfa6" opacity="0.48"/><circle cx="315" cy="855" r="2.8" fill="#f0dfa6" opacity="0.34"/><circle cx="674" cy="93" r="1.1" fill="#f0dfa6" opacity="0.49"/><circle cx="381" cy="634" r="1.5" fill="#f0dfa6" opacity="0.43"/><circle cx="954" cy="264" r="1.4" fill="#f0dfa6" opacity="0.39"/><circle cx="110" cy="206" r="2.1" fill="#f0dfa6" opacity="0.44"/><circle cx="983" cy="252" r="2.8" fill="#f0dfa6" opacity="0.18"/><circle cx="27" cy="242" r="1.9" fill="#f0dfa6" opacity="0.12"/><circle cx="282" cy="332" r="2.1" fill="#f0dfa6" opacity="0.15"/><circle cx="579" cy="802" r="3.0" fill="#f0dfa6" opacity="0.36"/><circle cx="1106" cy="526" r="1.3" fill="#f0dfa6" opacity="0.11"/><circle cx="29" cy="819" r="2.4" fill="#f0dfa6" opacity="0.49"/><circle cx="34" cy="573" r="2.0" fill="#f0dfa6" opacity="0.39"/><circle cx="510" cy="899" r="1.2" fill="#f0dfa6" opacity="0.32"/><circle cx="1179" cy="810" r="2.5" fill="#f0dfa6" opacity="0.38"/>
<line x1="0" y1="765" x2="1600" y2="90" stroke="url(#sm11)" stroke-width="3" opacity="0.6"/>
</svg>