<svg xmlns="http://www.w3.org/2000/svg" viewBox="0 0 800 600" role="img" aria-label="Web Presentation">
<defs>
  <linearGradient id="bgGrad" x1="0%" y1="0%" x2="100%" y2="100%">
    <stop offset="0%" stop-color="#071b35"/>
    <stop offset="55%" stop-color="#0b3d91"/>
    <stop offset="100%" stop-color="#123163"/>
  </linearGradient>
  <linearGradient id="seam" x1="0%" y1="100%" x2="100%" y2="0%">
    <stop offset="0%" stop-color="#8a7124"/>
    <stop offset="50%" stop-color="#d4af37"/>
    <stop offset="100%" stop-color="#f0dfa6"/>
  </linearGradient>
  <radialGradient id="glow" cx="50%" cy="50%" r="60%">
    <stop offset="0%" stop-color="#d4af37" stop-opacity="0.35"/>
    <stop offset="100%" stop-color="#d4af37" stop-opacity="0"/>
  </radialGradient>
  <linearGradient id="glass" x1="0%" y1="0%" x2="0%" y2="100%">
    <stop offset="0%" stop-color="#ffffff" stop-opacity="0.14"/>
    <stop offset="100%" stop-color="#ffffff" stop-opacity="0.02"/>
  </linearGradient>
</defs>
<rect width="800" height="600" fill="url(#bgGrad)"/>
<rect width="800" height="600" fill="url(#glow)"/>
<circle cx="490" cy="522" r="1.2" fill="#f0dfa6" opacity="0.44"/>
<circle cx="552" cy="243" r="1.4" fill="#f0dfa6" opacity="0.24"/>
<circle cx="255" cy="526" r="3.0" fill="#f0dfa6" opacity="0.30"/>
<circle cx="440" cy="483" r="2.7" fill="#f0dfa6" opacity="0.19"/>
<circle cx="640" cy="214" r="3.0" fill="#f0dfa6" opacity="0.33"/>
<circle cx="419" cy="313" r="2.4" fill="#f0dfa6" opacity="0.17"/>
<circle cx="737" cy="274" r="2.3" fill="#f0dfa6" opacity="0.27"/>
<circle cx="44" cy="352" r="2.3" fill="#f0dfa6" opacity="0.33"/>
<circle cx="341" cy="297" r="1.9" fill="#f0dfa6" opacity="0.22"/>
<circle cx="196" cy="133" r="3.1" fill="#f0dfa6" opacity="0.50"/>
<circle cx="135" cy="291" r="2.9" fill="#f0dfa6" opacity="0.25"/>
<circle cx="388" cy="30" r="2.7" fill="#f0dfa6" opacity="0.21"/>
<circle cx="222" cy="574" r="1.5" fill="#f0dfa6" opacity="0.47"/>
<circle cx="616" cy="565" r="3.0" fill="#f0dfa6" opacity="0.49"/>
<line x1="0" y1="468" x2="800" y2="132" stroke="url(#seam)" stroke-width="2.5" opacity="0.55"/>
<circle cx="400" cy="300" r="150" fill="url(#glass)" stroke="#f0dfa6" stroke-opacity="0.25" stroke-width="1"/>
<g transform="translate(352.0,252.0) scale(2)" stroke="#f0dfa6" stroke-width="1.6" fill="none" stroke-linecap="round" stroke-linejoin="round">
<rect x="8" y="8" width="32" height="20" rx="2"/><path d="M4 34h40l-4 6H8z"/>
</g>
<text x="40" y="560" font-family="Montserrat, sans-serif" font-size="22" font-weight="700" fill="#ffffff">Web Presentation</text>
<text x="40" y="584" font-family="Poppins, sans-serif" font-size="13" fill="#aebbd4">Client-Ready Presentation</text>
</svg>