<svg xmlns="http://www.w3.org/2000/svg" viewBox="0 0 800 600" role="img" aria-label="Mobile App">
<defs>
  <linearGradient id="bgGrad" x1="0%" y1="0%" x2="100%" y2="100%">
    <stop offset="0%" stop-color="#071b35"/>
    <stop offset="55%" stop-color="#0b3d91"/>
    <stop offset="100%" stop-color="#123163"/>
  </linearGradient>
  <linearGradient id="seam" x1="0%" y1="100%" x2="100%" y2="0%">
    <stop offset="0%" stop-color="#8a7124"/>
    <stop offset="50%" stop-color="#d4af37"/>
    <stop offset="100%" stop-color="#f0dfa6"/>
  </linearGradient>
  <radialGradient id="glow" cx="50%" cy="50%" r="60%">
    <stop offset="0%" stop-color="#d4af37" stop-opacity="0.35"/>
    <stop offset="100%" stop-color="#d4af37" stop-opacity="0"/>
  </radialGradient>
  <linearGradient id="glass" x1="0%" y1="0%" x2="0%" y2="100%">
    <stop offset="0%" stop-color="#ffffff" stop-opacity="0.14"/>
    <stop offset="100%" stop-color="#ffffff" stop-opacity="0.02"/>
  </linearGradient>
</defs>
<rect width="800" height="600" fill="url(#bgGrad)"/>
<rect width="800" height="600" fill="url(#glow)"/>
<circle cx="653" cy="476" r="2.4" fill="#f0dfa6" opacity="0.17"/>
<circle cx="491" cy="262" r="2.4" fill="#f0dfa6" opacity="0.33"/>
<circle cx="465" cy="172" r="2.1" fill="#f0dfa6" opacity="0.32"/>
<circle cx="410" cy="209" r="3.1" fill="#f0dfa6" opacity="0.25"/>
<circle cx="510" cy="281" r="1.4" fill="#f0dfa6" opacity="0.54"/>
<circle cx="287" cy="389" r="2.4" fill="#f0dfa6" opacity="0.35"/>
<circle cx="649" cy="540" r="2.2" fill="#f0dfa6" opacity="0.35"/>
<circle cx="95" cy="278" r="2.7" fill="#f0dfa6" opacity="0.46"/>
<circle cx="211" cy="60" r="2.1" fill="#f0dfa6" opacity="0.42"/>
<circle cx="703" cy="27" r="2.8" fill="#f0dfa6" opacity="0.19"/>
<circle cx="504" cy="287" r="1.6" fill="#f0dfa6" opacity="0.36"/>
<circle cx="335" cy="536" r="2.6" fill="#f0dfa6" opacity="0.50"/>
<circle cx="80" cy="189" r="3.1" fill="#f0dfa6" opacity="0.33"/>
<circle cx="573" cy="239" r="1.5" fill="#f0dfa6" opacity="0.29"/>
<line x1="0" y1="468" x2="800" y2="132" stroke="url(#seam)" stroke-width="2.5" opacity="0.55"/>
<circle cx="400" cy="300" r="150" fill="url(#glass)" stroke="#f0dfa6" stroke-opacity="0.25" stroke-width="1"/>
<g transform="translate(352.0,252.0) scale(2)" stroke="#f0dfa6" stroke-width="1.6" fill="none" stroke-linecap="round" stroke-linejoin="round">
<rect x="15" y="4" width="18" height="40" rx="3"/><path d="M20 8h8"/><circle cx="24" cy="38" r="1.6" fill="#f0dfa6"/>
</g>
<text x="40" y="560" font-family="Montserrat, sans-serif" font-size="22" font-weight="700" fill="#ffffff">Mobile App</text>
<text x="40" y="584" font-family="Poppins, sans-serif" font-size="13" fill="#aebbd4">Native-Feel Experiences</text>
</svg>