<svg xmlns="http://www.w3.org/2000/svg" viewBox="0 0 800 600" role="img" aria-label="Studio Space">
<defs>
  <linearGradient id="bgGrad" x1="0%" y1="0%" x2="100%" y2="100%">
    <stop offset="0%" stop-color="#071b35"/>
    <stop offset="55%" stop-color="#0b3d91"/>
    <stop offset="100%" stop-color="#123163"/>
  </linearGradient>
  <linearGradient id="seam" x1="0%" y1="100%" x2="100%" y2="0%">
    <stop offset="0%" stop-color="#8a7124"/>
    <stop offset="50%" stop-color="#d4af37"/>
    <stop offset="100%" stop-color="#f0dfa6"/>
  </linearGradient>
  <radialGradient id="glow" cx="50%" cy="50%" r="60%">
    <stop offset="0%" stop-color="#d4af37" stop-opacity="0.35"/>
    <stop offset="100%" stop-color="#d4af37" stop-opacity="0"/>
  </radialGradient>
  <linearGradient id="glass" x1="0%" y1="0%" x2="0%" y2="100%">
    <stop offset="0%" stop-color="#ffffff" stop-opacity="0.14"/>
    <stop offset="100%" stop-color="#ffffff" stop-opacity="0.02"/>
  </linearGradient>
</defs>
<rect width="800" height="600" fill="url(#bgGrad)"/>
<rect width="800" height="600" fill="url(#glow)"/>
<circle cx="416" cy="442" r="2.0" fill="#f0dfa6" opacity="0.31"/>
<circle cx="426" cy="519" r="2.0" fill="#f0dfa6" opacity="0.44"/>
<circle cx="758" cy="489" r="1.4" fill="#f0dfa6" opacity="0.48"/>
<circle cx="35" cy="86" r="3.1" fill="#f0dfa6" opacity="0.34"/>
<circle cx="737" cy="468" r="2.6" fill="#f0dfa6" opacity="0.49"/>
<circle cx="653" cy="553" r="1.2" fill="#f0dfa6" opacity="0.32"/>
<circle cx="400" cy="414" r="3.0" fill="#f0dfa6" opacity="0.26"/>
<circle cx="84" cy="284" r="1.5" fill="#f0dfa6" opacity="0.37"/>
<circle cx="340" cy="422" r="1.6" fill="#f0dfa6" opacity="0.54"/>
<circle cx="543" cy="505" r="1.3" fill="#f0dfa6" opacity="0.37"/>
<circle cx="747" cy="550" r="2.5" fill="#f0dfa6" opacity="0.51"/>
<circle cx="294" cy="448" r="3.1" fill="#f0dfa6" opacity="0.51"/>
<circle cx="626" cy="544" r="2.6" fill="#f0dfa6" opacity="0.41"/>
<circle cx="134" cy="115" r="1.3" fill="#f0dfa6" opacity="0.36"/>
<line x1="0" y1="468" x2="800" y2="132" stroke="url(#seam)" stroke-width="2.5" opacity="0.55"/>
<circle cx="400" cy="300" r="150" fill="url(#glass)" stroke="#f0dfa6" stroke-opacity="0.25" stroke-width="1"/>
<g transform="translate(352.0,252.0) scale(2)" stroke="#f0dfa6" stroke-width="1.6" fill="none" stroke-linecap="round" stroke-linejoin="round">
<rect x="6" y="14" width="36" height="26" rx="2"/><path d="M6 22h36M16 22v18M32 22v18"/>
</g>
<text x="40" y="560" font-family="Montserrat, sans-serif" font-size="22" font-weight="700" fill="#ffffff">Studio Space</text>
<text x="40" y="584" font-family="Poppins, sans-serif" font-size="13" fill="#aebbd4">Where Ideas Are Built</text>
</svg>