<svg xmlns="http://www.w3.org/2000/svg" viewBox="0 0 800 600" role="img" aria-label="Photography">
<defs>
  <linearGradient id="bgGrad" x1="0%" y1="0%" x2="100%" y2="100%">
    <stop offset="0%" stop-color="#071b35"/>
    <stop offset="55%" stop-color="#0b3d91"/>
    <stop offset="100%" stop-color="#123163"/>
  </linearGradient>
  <linearGradient id="seam" x1="0%" y1="100%" x2="100%" y2="0%">
    <stop offset="0%" stop-color="#8a7124"/>
    <stop offset="50%" stop-color="#d4af37"/>
    <stop offset="100%" stop-color="#f0dfa6"/>
  </linearGradient>
  <radialGradient id="glow" cx="50%" cy="50%" r="60%">
    <stop offset="0%" stop-color="#d4af37" stop-opacity="0.35"/>
    <stop offset="100%" stop-color="#d4af37" stop-opacity="0"/>
  </radialGradient>
  <linearGradient id="glass" x1="0%" y1="0%" x2="0%" y2="100%">
    <stop offset="0%" stop-color="#ffffff" stop-opacity="0.14"/>
    <stop offset="100%" stop-color="#ffffff" stop-opacity="0.02"/>
  </linearGradient>
</defs>
<rect width="800" height="600" fill="url(#bgGrad)"/>
<rect width="800" height="600" fill="url(#glow)"/>
<circle cx="675" cy="235" r="1.8" fill="#f0dfa6" opacity="0.48"/>
<circle cx="244" cy="132" r="1.8" fill="#f0dfa6" opacity="0.33"/>
<circle cx="260" cy="468" r="2.3" fill="#f0dfa6" opacity="0.54"/>
<circle cx="736" cy="466" r="1.6" fill="#f0dfa6" opacity="0.38"/>
<circle cx="752" cy="118" r="3.1" fill="#f0dfa6" opacity="0.48"/>
<circle cx="418" cy="333" r="3.1" fill="#f0dfa6" opacity="0.37"/>
<circle cx="569" cy="178" r="2.3" fill="#f0dfa6" opacity="0.23"/>
<circle cx="52" cy="113" r="3.0" fill="#f0dfa6" opacity="0.52"/>
<circle cx="709" cy="277" r="1.4" fill="#f0dfa6" opacity="0.44"/>
<circle cx="265" cy="535" r="3.1" fill="#f0dfa6" opacity="0.29"/>
<circle cx="578" cy="158" r="1.2" fill="#f0dfa6" opacity="0.55"/>
<circle cx="91" cy="291" r="2.6" fill="#f0dfa6" opacity="0.43"/>
<circle cx="230" cy="514" r="2.9" fill="#f0dfa6" opacity="0.16"/>
<circle cx="407" cy="114" r="2.4" fill="#f0dfa6" opacity="0.22"/>
<line x1="0" y1="468" x2="800" y2="132" stroke="url(#seam)" stroke-width="2.5" opacity="0.55"/>
<circle cx="400" cy="300" r="150" fill="url(#glass)" stroke="#f0dfa6" stroke-opacity="0.25" stroke-width="1"/>
<g transform="translate(352.0,252.0) scale(2)" stroke="#f0dfa6" stroke-width="1.6" fill="none" stroke-linecap="round" stroke-linejoin="round">
<circle cx="24" cy="26" r="9"/><path d="M6 16h8l3-5h14l3 5h8v22H6z"/>
</g>
<text x="40" y="560" font-family="Montserrat, sans-serif" font-size="22" font-weight="700" fill="#ffffff">Photography</text>
<text x="40" y="584" font-family="Poppins, sans-serif" font-size="13" fill="#aebbd4">Studio &amp; On-Location Shoots</text>
</svg>