<svg xmlns="http://www.w3.org/2000/svg" viewBox="0 0 800 600" role="img" aria-label="SEO">
<defs>
  <linearGradient id="bgGrad" x1="0%" y1="0%" x2="100%" y2="100%">
    <stop offset="0%" stop-color="#071b35"/>
    <stop offset="55%" stop-color="#0b3d91"/>
    <stop offset="100%" stop-color="#123163"/>
  </linearGradient>
  <linearGradient id="seam" x1="0%" y1="100%" x2="100%" y2="0%">
    <stop offset="0%" stop-color="#8a7124"/>
    <stop offset="50%" stop-color="#d4af37"/>
    <stop offset="100%" stop-color="#f0dfa6"/>
  </linearGradient>
  <radialGradient id="glow" cx="50%" cy="50%" r="60%">
    <stop offset="0%" stop-color="#d4af37" stop-opacity="0.35"/>
    <stop offset="100%" stop-color="#d4af37" stop-opacity="0"/>
  </radialGradient>
  <linearGradient id="glass" x1="0%" y1="0%" x2="0%" y2="100%">
    <stop offset="0%" stop-color="#ffffff" stop-opacity="0.14"/>
    <stop offset="100%" stop-color="#ffffff" stop-opacity="0.02"/>
  </linearGradient>
</defs>
<rect width="800" height="600" fill="url(#bgGrad)"/>
<rect width="800" height="600" fill="url(#glow)"/>
<circle cx="280" cy="56" r="3.0" fill="#f0dfa6" opacity="0.38"/>
<circle cx="455" cy="393" r="1.7" fill="#f0dfa6" opacity="0.55"/>
<circle cx="548" cy="332" r="2.7" fill="#f0dfa6" opacity="0.46"/>
<circle cx="456" cy="273" r="1.6" fill="#f0dfa6" opacity="0.32"/>
<circle cx="166" cy="319" r="3.1" fill="#f0dfa6" opacity="0.54"/>
<circle cx="680" cy="146" r="2.2" fill="#f0dfa6" opacity="0.33"/>
<circle cx="139" cy="390" r="2.3" fill="#f0dfa6" opacity="0.40"/>
<circle cx="685" cy="118" r="1.5" fill="#f0dfa6" opacity="0.16"/>
<circle cx="25" cy="24" r="3.0" fill="#f0dfa6" opacity="0.34"/>
<circle cx="41" cy="52" r="2.4" fill="#f0dfa6" opacity="0.30"/>
<circle cx="156" cy="420" r="1.8" fill="#f0dfa6" opacity="0.34"/>
<circle cx="39" cy="478" r="2.2" fill="#f0dfa6" opacity="0.36"/>
<circle cx="198" cy="369" r="2.4" fill="#f0dfa6" opacity="0.16"/>
<circle cx="679" cy="481" r="1.3" fill="#f0dfa6" opacity="0.45"/>
<line x1="0" y1="468" x2="800" y2="132" stroke="url(#seam)" stroke-width="2.5" opacity="0.55"/>
<circle cx="400" cy="300" r="150" fill="url(#glass)" stroke="#f0dfa6" stroke-opacity="0.25" stroke-width="1"/>
<g transform="translate(352.0,252.0) scale(2)" stroke="#f0dfa6" stroke-width="1.6" fill="none" stroke-linecap="round" stroke-linejoin="round">
<circle cx="20" cy="20" r="13"/><path d="M29.5 29.5L42 42"/>
</g>
<text x="40" y="560" font-family="Montserrat, sans-serif" font-size="22" font-weight="700" fill="#ffffff">SEO</text>
<text x="40" y="584" font-family="Poppins, sans-serif" font-size="13" fill="#aebbd4">Rank. Reach. Convert.</text>
</svg>