<svg xmlns="http://www.w3.org/2000/svg" viewBox="0 0 800 600" role="img" aria-label="Social Media">
<defs>
  <linearGradient id="bgGrad" x1="0%" y1="0%" x2="100%" y2="100%">
    <stop offset="0%" stop-color="#071b35"/>
    <stop offset="55%" stop-color="#0b3d91"/>
    <stop offset="100%" stop-color="#123163"/>
  </linearGradient>
  <linearGradient id="seam" x1="0%" y1="100%" x2="100%" y2="0%">
    <stop offset="0%" stop-color="#8a7124"/>
    <stop offset="50%" stop-color="#d4af37"/>
    <stop offset="100%" stop-color="#f0dfa6"/>
  </linearGradient>
  <radialGradient id="glow" cx="50%" cy="50%" r="60%">
    <stop offset="0%" stop-color="#d4af37" stop-opacity="0.35"/>
    <stop offset="100%" stop-color="#d4af37" stop-opacity="0"/>
  </radialGradient>
  <linearGradient id="glass" x1="0%" y1="0%" x2="0%" y2="100%">
    <stop offset="0%" stop-color="#ffffff" stop-opacity="0.14"/>
    <stop offset="100%" stop-color="#ffffff" stop-opacity="0.02"/>
  </linearGradient>
</defs>
<rect width="800" height="600" fill="url(#bgGrad)"/>
<rect width="800" height="600" fill="url(#glow)"/>
<circle cx="771" cy="498" r="1.6" fill="#f0dfa6" opacity="0.24"/>
<circle cx="623" cy="75" r="1.8" fill="#f0dfa6" opacity="0.41"/>
<circle cx="88" cy="494" r="2.9" fill="#f0dfa6" opacity="0.43"/>
<circle cx="492" cy="152" r="1.3" fill="#f0dfa6" opacity="0.34"/>
<circle cx="454" cy="518" r="1.6" fill="#f0dfa6" opacity="0.38"/>
<circle cx="243" cy="78" r="2.5" fill="#f0dfa6" opacity="0.37"/>
<circle cx="403" cy="503" r="2.9" fill="#f0dfa6" opacity="0.48"/>
<circle cx="86" cy="549" r="2.3" fill="#f0dfa6" opacity="0.26"/>
<circle cx="633" cy="192" r="2.1" fill="#f0dfa6" opacity="0.41"/>
<circle cx="650" cy="511" r="2.5" fill="#f0dfa6" opacity="0.30"/>
<circle cx="162" cy="108" r="2.3" fill="#f0dfa6" opacity="0.23"/>
<circle cx="745" cy="49" r="3.2" fill="#f0dfa6" opacity="0.16"/>
<circle cx="116" cy="275" r="2.6" fill="#f0dfa6" opacity="0.43"/>
<circle cx="303" cy="325" r="1.4" fill="#f0dfa6" opacity="0.32"/>
<line x1="0" y1="468" x2="800" y2="132" stroke="url(#seam)" stroke-width="2.5" opacity="0.55"/>
<circle cx="400" cy="300" r="150" fill="url(#glass)" stroke="#f0dfa6" stroke-opacity="0.25" stroke-width="1"/>
<g transform="translate(352.0,252.0) scale(2)" stroke="#f0dfa6" stroke-width="1.6" fill="none" stroke-linecap="round" stroke-linejoin="round">
<rect x="10" y="4" width="28" height="40" rx="5"/><rect x="15" y="12" width="18" height="18" rx="2"/><path d="M15 34h18"/>
</g>
<text x="40" y="560" font-family="Montserrat, sans-serif" font-size="22" font-weight="700" fill="#ffffff">Social Media</text>
<text x="40" y="584" font-family="Poppins, sans-serif" font-size="13" fill="#aebbd4">Content That Gets Shared</text>
</svg>