<svg xmlns="http://www.w3.org/2000/svg" viewBox="0 0 800 600" role="img" aria-label="Video Editing">
<defs>
  <linearGradient id="bgGrad" x1="0%" y1="0%" x2="100%" y2="100%">
    <stop offset="0%" stop-color="#071b35"/>
    <stop offset="55%" stop-color="#0b3d91"/>
    <stop offset="100%" stop-color="#123163"/>
  </linearGradient>
  <linearGradient id="seam" x1="0%" y1="100%" x2="100%" y2="0%">
    <stop offset="0%" stop-color="#8a7124"/>
    <stop offset="50%" stop-color="#d4af37"/>
    <stop offset="100%" stop-color="#f0dfa6"/>
  </linearGradient>
  <radialGradient id="glow" cx="50%" cy="50%" r="60%">
    <stop offset="0%" stop-color="#d4af37" stop-opacity="0.35"/>
    <stop offset="100%" stop-color="#d4af37" stop-opacity="0"/>
  </radialGradient>
  <linearGradient id="glass" x1="0%" y1="0%" x2="0%" y2="100%">
    <stop offset="0%" stop-color="#ffffff" stop-opacity="0.14"/>
    <stop offset="100%" stop-color="#ffffff" stop-opacity="0.02"/>
  </linearGradient>
</defs>
<rect width="800" height="600" fill="url(#bgGrad)"/>
<rect width="800" height="600" fill="url(#glow)"/>
<circle cx="694" cy="409" r="1.4" fill="#f0dfa6" opacity="0.42"/>
<circle cx="725" cy="516" r="2.0" fill="#f0dfa6" opacity="0.49"/>
<circle cx="609" cy="508" r="1.9" fill="#f0dfa6" opacity="0.33"/>
<circle cx="220" cy="318" r="3.1" fill="#f0dfa6" opacity="0.48"/>
<circle cx="586" cy="157" r="1.3" fill="#f0dfa6" opacity="0.22"/>
<circle cx="36" cy="437" r="2.0" fill="#f0dfa6" opacity="0.47"/>
<circle cx="235" cy="31" r="2.4" fill="#f0dfa6" opacity="0.37"/>
<circle cx="69" cy="459" r="2.1" fill="#f0dfa6" opacity="0.43"/>
<circle cx="703" cy="309" r="2.3" fill="#f0dfa6" opacity="0.55"/>
<circle cx="732" cy="471" r="1.7" fill="#f0dfa6" opacity="0.17"/>
<circle cx="422" cy="412" r="1.3" fill="#f0dfa6" opacity="0.25"/>
<circle cx="278" cy="223" r="2.5" fill="#f0dfa6" opacity="0.30"/>
<circle cx="301" cy="97" r="1.6" fill="#f0dfa6" opacity="0.31"/>
<circle cx="687" cy="533" r="1.7" fill="#f0dfa6" opacity="0.45"/>
<line x1="0" y1="468" x2="800" y2="132" stroke="url(#seam)" stroke-width="2.5" opacity="0.55"/>
<circle cx="400" cy="300" r="150" fill="url(#glass)" stroke="#f0dfa6" stroke-opacity="0.25" stroke-width="1"/>
<g transform="translate(352.0,252.0) scale(2)" stroke="#f0dfa6" stroke-width="1.6" fill="none" stroke-linecap="round" stroke-linejoin="round">
<rect x="6" y="10" width="36" height="22" rx="2"/><path d="M6 32l10-10 6 6 8-10 12 14"/>
</g>
<text x="40" y="560" font-family="Montserrat, sans-serif" font-size="22" font-weight="700" fill="#ffffff">Video Editing</text>
<text x="40" y="584" font-family="Poppins, sans-serif" font-size="13" fill="#aebbd4">Colour Grade &amp; Post-Production</text>
</svg>