<svg xmlns="http://www.w3.org/2000/svg" viewBox="0 0 800 600" role="img" aria-label="Website Design">
<defs>
  <linearGradient id="bgGrad" x1="0%" y1="0%" x2="100%" y2="100%">
    <stop offset="0%" stop-color="#071b35"/>
    <stop offset="55%" stop-color="#0b3d91"/>
    <stop offset="100%" stop-color="#123163"/>
  </linearGradient>
  <linearGradient id="seam" x1="0%" y1="100%" x2="100%" y2="0%">
    <stop offset="0%" stop-color="#8a7124"/>
    <stop offset="50%" stop-color="#d4af37"/>
    <stop offset="100%" stop-color="#f0dfa6"/>
  </linearGradient>
  <radialGradient id="glow" cx="50%" cy="50%" r="60%">
    <stop offset="0%" stop-color="#d4af37" stop-opacity="0.35"/>
    <stop offset="100%" stop-color="#d4af37" stop-opacity="0"/>
  </radialGradient>
  <linearGradient id="glass" x1="0%" y1="0%" x2="0%" y2="100%">
    <stop offset="0%" stop-color="#ffffff" stop-opacity="0.14"/>
    <stop offset="100%" stop-color="#ffffff" stop-opacity="0.02"/>
  </linearGradient>
</defs>
<rect width="800" height="600" fill="url(#bgGrad)"/>
<rect width="800" height="600" fill="url(#glow)"/>
<circle cx="185" cy="512" r="1.5" fill="#f0dfa6" opacity="0.17"/>
<circle cx="497" cy="236" r="3.1" fill="#f0dfa6" opacity="0.32"/>
<circle cx="42" cy="477" r="1.5" fill="#f0dfa6" opacity="0.16"/>
<circle cx="742" cy="579" r="2.1" fill="#f0dfa6" opacity="0.45"/>
<circle cx="492" cy="119" r="2.4" fill="#f0dfa6" opacity="0.28"/>
<circle cx="187" cy="391" r="1.9" fill="#f0dfa6" opacity="0.50"/>
<circle cx="346" cy="154" r="1.8" fill="#f0dfa6" opacity="0.29"/>
<circle cx="427" cy="580" r="3.1" fill="#f0dfa6" opacity="0.38"/>
<circle cx="615" cy="87" r="2.9" fill="#f0dfa6" opacity="0.29"/>
<circle cx="505" cy="242" r="2.0" fill="#f0dfa6" opacity="0.24"/>
<circle cx="201" cy="25" r="1.7" fill="#f0dfa6" opacity="0.16"/>
<circle cx="584" cy="394" r="2.1" fill="#f0dfa6" opacity="0.35"/>
<circle cx="548" cy="556" r="1.3" fill="#f0dfa6" opacity="0.24"/>
<circle cx="197" cy="107" r="2.1" fill="#f0dfa6" opacity="0.20"/>
<line x1="0" y1="468" x2="800" y2="132" stroke="url(#seam)" stroke-width="2.5" opacity="0.55"/>
<circle cx="400" cy="300" r="150" fill="url(#glass)" stroke="#f0dfa6" stroke-opacity="0.25" stroke-width="1"/>
<g transform="translate(352.0,252.0) scale(2)" stroke="#f0dfa6" stroke-width="1.6" fill="none" stroke-linecap="round" stroke-linejoin="round">
<rect x="5" y="9" width="38" height="30" rx="3"/><path d="M5 17h38"/><path d="M12 25h12M12 31h20"/>
</g>
<text x="40" y="560" font-family="Montserrat, sans-serif" font-size="22" font-weight="700" fill="#ffffff">Website Design</text>
<text x="40" y="584" font-family="Poppins, sans-serif" font-size="13" fill="#aebbd4">Responsive, Fast, On-Brand</text>
</svg>