<svg xmlns="http://www.w3.org/2000/svg" viewBox="0 0 400 260" role="img" aria-label="Invitation Cards">
<defs>
  <linearGradient id="pc239" x1="0%" y1="0%" x2="100%" y2="100%">
    <stop offset="0%" stop-color="#071b35"/>
    <stop offset="100%" stop-color="#1a56c4"/>
  </linearGradient>
</defs>
<rect width="400" height="260" fill="url(#pc239)"/>
<circle cx="47" cy="215" r="1.2" fill="#ffffff" opacity="0.10"/>
<circle cx="25" cy="96" r="1.0" fill="#ffffff" opacity="0.21"/>
<circle cx="103" cy="218" r="1.2" fill="#ffffff" opacity="0.18"/>
<circle cx="10" cy="227" r="1.2" fill="#ffffff" opacity="0.12"/>
<circle cx="334" cy="124" r="1.9" fill="#ffffff" opacity="0.25"/>
<circle cx="387" cy="197" r="2.1" fill="#ffffff" opacity="0.21"/>
<circle cx="194" cy="257" r="1.1" fill="#ffffff" opacity="0.24"/>
<circle cx="225" cy="113" r="1.3" fill="#ffffff" opacity="0.12"/>
<circle cx="129" cy="19" r="1.8" fill="#ffffff" opacity="0.18"/>
<circle cx="82" cy="204" r="2.1" fill="#ffffff" opacity="0.24"/>
<path d="M110 70 L150 100 L135 150 L85 150 L70 100 Z" fill="#f0dfa6" opacity="0.09"/>
<path d="M200 70 L240 100 L225 150 L175 150 L160 100 Z" fill="#f0dfa6" opacity="0.15"/>
<path d="M290 70 L330 100 L315 150 L265 150 L250 100 Z" fill="#f0dfa6" opacity="0.21"/>
<rect x="40" y="180" width="320" height="8" rx="4" fill="#f0dfa6" opacity="0.3"/>
<line x1="0" y1="234" x2="400" y2="13" stroke="#d4af37" stroke-width="1.5" opacity="0.35"/>
<text x="24" y="238" font-family="Montserrat, sans-serif" font-size="15" font-weight="700" fill="#ffffff">Invitation Cards</text>
<text x="24" y="254" font-family="Poppins, sans-serif" font-size="10" fill="#d4af37" letter-spacing="1">Graphic Design</text>
</svg>