<svg xmlns="http://www.w3.org/2000/svg" viewBox="0 0 400 260" role="img" aria-label="Search Engine Optimization (SEO)">
<defs>
  <linearGradient id="pc317" x1="0%" y1="0%" x2="100%" y2="100%">
    <stop offset="0%" stop-color="#071b35"/>
    <stop offset="100%" stop-color="#1a56c4"/>
  </linearGradient>
</defs>
<rect width="400" height="260" fill="url(#pc317)"/>
<circle cx="185" cy="183" r="1.5" fill="#ffffff" opacity="0.11"/>
<circle cx="223" cy="183" r="1.6" fill="#ffffff" opacity="0.13"/>
<circle cx="131" cy="67" r="1.7" fill="#ffffff" opacity="0.22"/>
<circle cx="369" cy="238" r="1.1" fill="#ffffff" opacity="0.17"/>
<circle cx="285" cy="96" r="1.4" fill="#ffffff" opacity="0.11"/>
<circle cx="8" cy="251" r="2.1" fill="#ffffff" opacity="0.21"/>
<circle cx="308" cy="225" r="1.1" fill="#ffffff" opacity="0.09"/>
<circle cx="64" cy="155" r="1.8" fill="#ffffff" opacity="0.22"/>
<circle cx="100" cy="26" r="1.5" fill="#ffffff" opacity="0.11"/>
<circle cx="303" cy="21" r="2.3" fill="#ffffff" opacity="0.14"/>
<rect x="40" y="128" width="34" height="72" rx="4" fill="#f0dfa6" opacity="0.32"/>
<rect x="100" y="107" width="34" height="93" rx="4" fill="#f0dfa6" opacity="0.32"/>
<rect x="160" y="135" width="34" height="65" rx="4" fill="#f0dfa6" opacity="0.32"/>
<rect x="220" y="152" width="34" height="48" rx="4" fill="#f0dfa6" opacity="0.32"/>
<rect x="280" y="120" width="34" height="80" rx="4" fill="#f0dfa6" opacity="0.32"/>
<path d="M40 190 L110 140 L170 165 L230 90 L340 60" fill="none" stroke="#f0dfa6" stroke-width="2.5" opacity="0.5"/>
<line x1="0" y1="234" x2="400" y2="13" stroke="#d4af37" stroke-width="1.5" opacity="0.35"/>
<text x="24" y="238" font-family="Montserrat, sans-serif" font-size="15" font-weight="700" fill="#ffffff">Search Engine Optimization (SEO)</text>
<text x="24" y="254" font-family="Poppins, sans-serif" font-size="10" fill="#d4af37" letter-spacing="1">Digital Marketing</text>
</svg>