<svg xmlns="http://www.w3.org/2000/svg" viewBox="0 0 400 260" role="img" aria-label="Google Ads">
<defs>
  <linearGradient id="pc309" x1="0%" y1="0%" x2="100%" y2="100%">
    <stop offset="0%" stop-color="#0d2647"/>
    <stop offset="100%" stop-color="#8a7124"/>
  </linearGradient>
</defs>
<rect width="400" height="260" fill="url(#pc309)"/>
<circle cx="25" cy="0" r="1.3" fill="#ffffff" opacity="0.23"/>
<circle cx="81" cy="189" r="2.1" fill="#ffffff" opacity="0.16"/>
<circle cx="73" cy="210" r="2.4" fill="#ffffff" opacity="0.15"/>
<circle cx="217" cy="31" r="1.9" fill="#ffffff" opacity="0.18"/>
<circle cx="10" cy="200" r="1.8" fill="#ffffff" opacity="0.09"/>
<circle cx="9" cy="1" r="2.3" fill="#ffffff" opacity="0.22"/>
<circle cx="330" cy="132" r="1.2" fill="#ffffff" opacity="0.09"/>
<circle cx="184" cy="204" r="1.5" fill="#ffffff" opacity="0.11"/>
<circle cx="176" cy="137" r="2.3" fill="#ffffff" opacity="0.11"/>
<circle cx="174" cy="82" r="2.1" fill="#ffffff" opacity="0.11"/>
<rect x="40" y="164" width="34" height="36" rx="4" fill="#f0dfa6" opacity="0.32"/>
<rect x="100" y="170" width="34" height="30" rx="4" fill="#f0dfa6" opacity="0.32"/>
<rect x="160" y="152" width="34" height="48" rx="4" fill="#f0dfa6" opacity="0.32"/>
<rect x="220" y="89" width="34" height="111" rx="4" fill="#f0dfa6" opacity="0.32"/>
<rect x="280" y="152" width="34" height="48" rx="4" fill="#f0dfa6" opacity="0.32"/>
<path d="M40 190 L110 140 L170 165 L230 90 L340 60" fill="none" stroke="#f0dfa6" stroke-width="2.5" opacity="0.5"/>
<line x1="0" y1="234" x2="400" y2="13" stroke="#d4af37" stroke-width="1.5" opacity="0.35"/>
<text x="24" y="238" font-family="Montserrat, sans-serif" font-size="15" font-weight="700" fill="#ffffff">Google Ads</text>
<text x="24" y="254" font-family="Poppins, sans-serif" font-size="10" fill="#d4af37" letter-spacing="1">Digital Marketing</text>
</svg>