<svg xmlns="http://www.w3.org/2000/svg" viewBox="0 0 400 260" role="img" aria-label="Brand Promotion">
<defs>
  <linearGradient id="pc349" x1="0%" y1="0%" x2="100%" y2="100%">
    <stop offset="0%" stop-color="#071b35"/>
    <stop offset="100%" stop-color="#0b3d91"/>
  </linearGradient>
</defs>
<rect width="400" height="260" fill="url(#pc349)"/>
<circle cx="164" cy="111" r="2.0" fill="#ffffff" opacity="0.18"/>
<circle cx="250" cy="87" r="1.7" fill="#ffffff" opacity="0.15"/>
<circle cx="3" cy="34" r="1.4" fill="#ffffff" opacity="0.13"/>
<circle cx="105" cy="158" r="1.9" fill="#ffffff" opacity="0.14"/>
<circle cx="293" cy="138" r="1.6" fill="#ffffff" opacity="0.17"/>
<circle cx="193" cy="240" r="1.5" fill="#ffffff" opacity="0.09"/>
<circle cx="399" cy="14" r="2.0" fill="#ffffff" opacity="0.16"/>
<circle cx="231" cy="176" r="1.9" fill="#ffffff" opacity="0.10"/>
<circle cx="174" cy="7" r="1.3" fill="#ffffff" opacity="0.20"/>
<circle cx="395" cy="135" r="1.8" fill="#ffffff" opacity="0.13"/>
<rect x="40" y="133" width="34" height="67" rx="4" fill="#f0dfa6" opacity="0.32"/>
<rect x="100" y="131" width="34" height="69" rx="4" fill="#f0dfa6" opacity="0.32"/>
<rect x="160" y="103" width="34" height="97" rx="4" fill="#f0dfa6" opacity="0.32"/>
<rect x="220" y="119" width="34" height="81" rx="4" fill="#f0dfa6" opacity="0.32"/>
<rect x="280" y="114" width="34" height="86" rx="4" fill="#f0dfa6" opacity="0.32"/>
<path d="M40 190 L110 140 L170 165 L230 90 L340 60" fill="none" stroke="#f0dfa6" stroke-width="2.5" opacity="0.5"/>
<line x1="0" y1="234" x2="400" y2="13" stroke="#d4af37" stroke-width="1.5" opacity="0.35"/>
<text x="24" y="238" font-family="Montserrat, sans-serif" font-size="15" font-weight="700" fill="#ffffff">Brand Promotion</text>
<text x="24" y="254" font-family="Poppins, sans-serif" font-size="10" fill="#d4af37" letter-spacing="1">Digital Marketing</text>
</svg>