<svg xmlns="http://www.w3.org/2000/svg" viewBox="0 0 400 260" role="img" aria-label="Local SEO">
<defs>
  <linearGradient id="pc325" x1="0%" y1="0%" x2="100%" y2="100%">
    <stop offset="0%" stop-color="#071b35"/>
    <stop offset="100%" stop-color="#0b3d91"/>
  </linearGradient>
</defs>
<rect width="400" height="260" fill="url(#pc325)"/>
<circle cx="220" cy="33" r="1.2" fill="#ffffff" opacity="0.24"/>
<circle cx="263" cy="44" r="2.3" fill="#ffffff" opacity="0.12"/>
<circle cx="272" cy="249" r="1.2" fill="#ffffff" opacity="0.18"/>
<circle cx="344" cy="239" r="1.2" fill="#ffffff" opacity="0.17"/>
<circle cx="179" cy="52" r="1.0" fill="#ffffff" opacity="0.16"/>
<circle cx="76" cy="71" r="1.5" fill="#ffffff" opacity="0.14"/>
<circle cx="389" cy="125" r="1.1" fill="#ffffff" opacity="0.12"/>
<circle cx="368" cy="166" r="1.9" fill="#ffffff" opacity="0.13"/>
<circle cx="125" cy="103" r="1.4" fill="#ffffff" opacity="0.23"/>
<circle cx="292" cy="96" r="1.6" fill="#ffffff" opacity="0.13"/>
<rect x="40" y="120" width="34" height="80" rx="4" fill="#f0dfa6" opacity="0.32"/>
<rect x="100" y="159" width="34" height="41" rx="4" fill="#f0dfa6" opacity="0.32"/>
<rect x="160" y="159" width="34" height="41" rx="4" fill="#f0dfa6" opacity="0.32"/>
<rect x="220" y="88" width="34" height="112" rx="4" fill="#f0dfa6" opacity="0.32"/>
<rect x="280" y="111" width="34" height="89" rx="4" fill="#f0dfa6" opacity="0.32"/>
<path d="M40 190 L110 140 L170 165 L230 90 L340 60" fill="none" stroke="#f0dfa6" stroke-width="2.5" opacity="0.5"/>
<line x1="0" y1="234" x2="400" y2="13" stroke="#d4af37" stroke-width="1.5" opacity="0.35"/>
<text x="24" y="238" font-family="Montserrat, sans-serif" font-size="15" font-weight="700" fill="#ffffff">Local SEO</text>
<text x="24" y="254" font-family="Poppins, sans-serif" font-size="10" fill="#d4af37" letter-spacing="1">Digital Marketing</text>
</svg>