<svg xmlns="http://www.w3.org/2000/svg" viewBox="0 0 400 260" role="img" aria-label="Email Marketing">
<defs>
  <linearGradient id="pc333" x1="0%" y1="0%" x2="100%" y2="100%">
    <stop offset="0%" stop-color="#0d2647"/>
    <stop offset="100%" stop-color="#8a7124"/>
  </linearGradient>
</defs>
<rect width="400" height="260" fill="url(#pc333)"/>
<circle cx="222" cy="92" r="2.4" fill="#ffffff" opacity="0.09"/>
<circle cx="215" cy="89" r="1.4" fill="#ffffff" opacity="0.24"/>
<circle cx="132" cy="207" r="2.2" fill="#ffffff" opacity="0.10"/>
<circle cx="20" cy="67" r="1.5" fill="#ffffff" opacity="0.16"/>
<circle cx="361" cy="253" r="1.4" fill="#ffffff" opacity="0.16"/>
<circle cx="193" cy="251" r="1.1" fill="#ffffff" opacity="0.11"/>
<circle cx="28" cy="170" r="2.4" fill="#ffffff" opacity="0.08"/>
<circle cx="397" cy="72" r="1.9" fill="#ffffff" opacity="0.24"/>
<circle cx="61" cy="0" r="1.3" fill="#ffffff" opacity="0.14"/>
<circle cx="189" cy="95" r="1.6" fill="#ffffff" opacity="0.09"/>
<rect x="40" y="120" width="34" height="80" rx="4" fill="#f0dfa6" opacity="0.32"/>
<rect x="100" y="138" width="34" height="62" rx="4" fill="#f0dfa6" opacity="0.32"/>
<rect x="160" y="82" width="34" height="118" rx="4" fill="#f0dfa6" opacity="0.32"/>
<rect x="220" y="163" width="34" height="37" rx="4" fill="#f0dfa6" opacity="0.32"/>
<rect x="280" y="122" width="34" height="78" rx="4" fill="#f0dfa6" opacity="0.32"/>
<path d="M40 190 L110 140 L170 165 L230 90 L340 60" fill="none" stroke="#f0dfa6" stroke-width="2.5" opacity="0.5"/>
<line x1="0" y1="234" x2="400" y2="13" stroke="#d4af37" stroke-width="1.5" opacity="0.35"/>
<text x="24" y="238" font-family="Montserrat, sans-serif" font-size="15" font-weight="700" fill="#ffffff">Email Marketing</text>
<text x="24" y="254" font-family="Poppins, sans-serif" font-size="10" fill="#d4af37" letter-spacing="1">Digital Marketing</text>
</svg>