<svg xmlns="http://www.w3.org/2000/svg" viewBox="0 0 400 260" role="img" aria-label="Marketing Strategy">
<defs>
  <linearGradient id="pc357" x1="0%" y1="0%" x2="100%" y2="100%">
    <stop offset="0%" stop-color="#0d2647"/>
    <stop offset="100%" stop-color="#8a7124"/>
  </linearGradient>
</defs>
<rect width="400" height="260" fill="url(#pc357)"/>
<circle cx="74" cy="243" r="1.1" fill="#ffffff" opacity="0.24"/>
<circle cx="108" cy="140" r="1.3" fill="#ffffff" opacity="0.15"/>
<circle cx="167" cy="41" r="1.1" fill="#ffffff" opacity="0.13"/>
<circle cx="194" cy="30" r="1.6" fill="#ffffff" opacity="0.15"/>
<circle cx="395" cy="24" r="1.3" fill="#ffffff" opacity="0.10"/>
<circle cx="286" cy="169" r="1.8" fill="#ffffff" opacity="0.23"/>
<circle cx="228" cy="83" r="1.1" fill="#ffffff" opacity="0.10"/>
<circle cx="381" cy="29" r="2.4" fill="#ffffff" opacity="0.25"/>
<circle cx="0" cy="178" r="1.0" fill="#ffffff" opacity="0.10"/>
<circle cx="336" cy="180" r="2.1" fill="#ffffff" opacity="0.11"/>
<rect x="40" y="153" width="34" height="47" rx="4" fill="#f0dfa6" opacity="0.32"/>
<rect x="100" y="86" width="34" height="114" rx="4" fill="#f0dfa6" opacity="0.32"/>
<rect x="160" y="164" width="34" height="36" rx="4" fill="#f0dfa6" opacity="0.32"/>
<rect x="220" y="88" width="34" height="112" rx="4" fill="#f0dfa6" opacity="0.32"/>
<rect x="280" y="146" width="34" height="54" rx="4" fill="#f0dfa6" opacity="0.32"/>
<path d="M40 190 L110 140 L170 165 L230 90 L340 60" fill="none" stroke="#f0dfa6" stroke-width="2.5" opacity="0.5"/>
<line x1="0" y1="234" x2="400" y2="13" stroke="#d4af37" stroke-width="1.5" opacity="0.35"/>
<text x="24" y="238" font-family="Montserrat, sans-serif" font-size="15" font-weight="700" fill="#ffffff">Marketing Strategy</text>
<text x="24" y="254" font-family="Poppins, sans-serif" font-size="10" fill="#d4af37" letter-spacing="1">Digital Marketing</text>
</svg>