<svg xmlns="http://www.w3.org/2000/svg" viewBox="0 0 400 260" role="img" aria-label="Lead Generation">
<defs>
  <linearGradient id="pc341" x1="0%" y1="0%" x2="100%" y2="100%">
    <stop offset="0%" stop-color="#071b35"/>
    <stop offset="100%" stop-color="#1a56c4"/>
  </linearGradient>
</defs>
<rect width="400" height="260" fill="url(#pc341)"/>
<circle cx="233" cy="148" r="1.2" fill="#ffffff" opacity="0.09"/>
<circle cx="339" cy="68" r="1.1" fill="#ffffff" opacity="0.20"/>
<circle cx="176" cy="244" r="1.3" fill="#ffffff" opacity="0.10"/>
<circle cx="360" cy="102" r="2.1" fill="#ffffff" opacity="0.21"/>
<circle cx="264" cy="163" r="1.9" fill="#ffffff" opacity="0.13"/>
<circle cx="30" cy="204" r="1.1" fill="#ffffff" opacity="0.23"/>
<circle cx="364" cy="74" r="2.4" fill="#ffffff" opacity="0.21"/>
<circle cx="189" cy="139" r="1.0" fill="#ffffff" opacity="0.20"/>
<circle cx="367" cy="221" r="1.7" fill="#ffffff" opacity="0.25"/>
<circle cx="358" cy="141" r="2.1" fill="#ffffff" opacity="0.24"/>
<rect x="40" y="118" width="34" height="82" rx="4" fill="#f0dfa6" opacity="0.32"/>
<rect x="100" y="119" width="34" height="81" rx="4" fill="#f0dfa6" opacity="0.32"/>
<rect x="160" y="156" width="34" height="44" rx="4" fill="#f0dfa6" opacity="0.32"/>
<rect x="220" y="165" width="34" height="35" rx="4" fill="#f0dfa6" opacity="0.32"/>
<rect x="280" y="94" width="34" height="106" rx="4" fill="#f0dfa6" opacity="0.32"/>
<path d="M40 190 L110 140 L170 165 L230 90 L340 60" fill="none" stroke="#f0dfa6" stroke-width="2.5" opacity="0.5"/>
<line x1="0" y1="234" x2="400" y2="13" stroke="#d4af37" stroke-width="1.5" opacity="0.35"/>
<text x="24" y="238" font-family="Montserrat, sans-serif" font-size="15" font-weight="700" fill="#ffffff">Lead Generation</text>
<text x="24" y="254" font-family="Poppins, sans-serif" font-size="10" fill="#d4af37" letter-spacing="1">Digital Marketing</text>
</svg>