<svg xmlns="http://www.w3.org/2000/svg" viewBox="0 0 400 260" role="img" aria-label="Meta Ads (Facebook &amp; Instagram)">
<defs>
  <linearGradient id="pc301" x1="0%" y1="0%" x2="100%" y2="100%">
    <stop offset="0%" stop-color="#071b35"/>
    <stop offset="100%" stop-color="#0b3d91"/>
  </linearGradient>
</defs>
<rect width="400" height="260" fill="url(#pc301)"/>
<circle cx="159" cy="208" r="1.7" fill="#ffffff" opacity="0.16"/>
<circle cx="94" cy="174" r="1.4" fill="#ffffff" opacity="0.25"/>
<circle cx="97" cy="250" r="1.1" fill="#ffffff" opacity="0.16"/>
<circle cx="221" cy="247" r="2.2" fill="#ffffff" opacity="0.13"/>
<circle cx="253" cy="223" r="1.2" fill="#ffffff" opacity="0.22"/>
<circle cx="325" cy="251" r="1.3" fill="#ffffff" opacity="0.21"/>
<circle cx="183" cy="248" r="2.1" fill="#ffffff" opacity="0.08"/>
<circle cx="377" cy="214" r="1.4" fill="#ffffff" opacity="0.24"/>
<circle cx="65" cy="245" r="1.8" fill="#ffffff" opacity="0.08"/>
<circle cx="324" cy="82" r="1.1" fill="#ffffff" opacity="0.11"/>
<rect x="40" y="134" width="34" height="66" rx="4" fill="#f0dfa6" opacity="0.32"/>
<rect x="100" y="98" width="34" height="102" rx="4" fill="#f0dfa6" opacity="0.32"/>
<rect x="160" y="126" width="34" height="74" rx="4" fill="#f0dfa6" opacity="0.32"/>
<rect x="220" y="129" width="34" height="71" rx="4" fill="#f0dfa6" opacity="0.32"/>
<rect x="280" y="149" width="34" height="51" rx="4" fill="#f0dfa6" opacity="0.32"/>
<path d="M40 190 L110 140 L170 165 L230 90 L340 60" fill="none" stroke="#f0dfa6" stroke-width="2.5" opacity="0.5"/>
<line x1="0" y1="234" x2="400" y2="13" stroke="#d4af37" stroke-width="1.5" opacity="0.35"/>
<text x="24" y="238" font-family="Montserrat, sans-serif" font-size="15" font-weight="700" fill="#ffffff">Meta Ads (Facebook &amp; Instagram)</text>
<text x="24" y="254" font-family="Poppins, sans-serif" font-size="10" fill="#d4af37" letter-spacing="1">Digital Marketing</text>
</svg>