<svg xmlns="http://www.w3.org/2000/svg" viewBox="0 0 400 260" role="img" aria-label="Real Estate Photography">
<defs>
  <linearGradient id="pc144" x1="0%" y1="0%" x2="100%" y2="100%">
    <stop offset="0%" stop-color="#0b3d91"/>
    <stop offset="100%" stop-color="#123163"/>
  </linearGradient>
</defs>
<rect width="400" height="260" fill="url(#pc144)"/>
<circle cx="179" cy="118" r="2.3" fill="#ffffff" opacity="0.20"/>
<circle cx="324" cy="23" r="1.6" fill="#ffffff" opacity="0.18"/>
<circle cx="186" cy="35" r="1.6" fill="#ffffff" opacity="0.16"/>
<circle cx="371" cy="232" r="1.4" fill="#ffffff" opacity="0.21"/>
<circle cx="104" cy="104" r="1.1" fill="#ffffff" opacity="0.14"/>
<circle cx="249" cy="185" r="1.8" fill="#ffffff" opacity="0.21"/>
<circle cx="176" cy="190" r="1.3" fill="#ffffff" opacity="0.11"/>
<circle cx="158" cy="211" r="1.4" fill="#ffffff" opacity="0.21"/>
<circle cx="158" cy="14" r="1.4" fill="#ffffff" opacity="0.17"/>
<circle cx="94" cy="55" r="2.2" fill="#ffffff" opacity="0.16"/>
<circle cx="188" cy="115" r="68" fill="#f0dfa6" opacity="0.1"/>
<circle cx="253" cy="157" r="34" fill="#f0dfa6" opacity="0.1"/>
<circle cx="178" cy="131" r="49" fill="#f0dfa6" opacity="0.1"/>
<rect x="120" y="90" width="160" height="110" rx="8" fill="none" stroke="#f0dfa6" stroke-width="2.5" opacity="0.55"/>
<circle cx="200" cy="145" r="34" fill="none" stroke="#f0dfa6" stroke-width="3" opacity="0.6"/>
<circle cx="200" cy="145" r="13" fill="#f0dfa6" opacity="0.5"/>
<line x1="0" y1="234" x2="400" y2="13" stroke="#d4af37" stroke-width="1.5" opacity="0.35"/>
<text x="24" y="238" font-family="Montserrat, sans-serif" font-size="15" font-weight="700" fill="#ffffff">Real Estate Photography</text>
<text x="24" y="254" font-family="Poppins, sans-serif" font-size="10" fill="#d4af37" letter-spacing="1">Photography &amp; Videography</text>
</svg>