<svg xmlns="http://www.w3.org/2000/svg" viewBox="0 0 400 260" role="img" aria-label="Fashion Photography">
<defs>
  <linearGradient id="pc160" x1="0%" y1="0%" x2="100%" y2="100%">
    <stop offset="0%" stop-color="#0b3d91"/>
    <stop offset="100%" stop-color="#d4af37"/>
  </linearGradient>
</defs>
<rect width="400" height="260" fill="url(#pc160)"/>
<circle cx="49" cy="89" r="1.2" fill="#ffffff" opacity="0.18"/>
<circle cx="284" cy="136" r="1.8" fill="#ffffff" opacity="0.22"/>
<circle cx="297" cy="122" r="1.4" fill="#ffffff" opacity="0.10"/>
<circle cx="19" cy="13" r="1.6" fill="#ffffff" opacity="0.17"/>
<circle cx="182" cy="217" r="2.1" fill="#ffffff" opacity="0.24"/>
<circle cx="376" cy="177" r="1.0" fill="#ffffff" opacity="0.19"/>
<circle cx="371" cy="47" r="2.0" fill="#ffffff" opacity="0.19"/>
<circle cx="31" cy="39" r="1.6" fill="#ffffff" opacity="0.13"/>
<circle cx="275" cy="1" r="1.8" fill="#ffffff" opacity="0.14"/>
<circle cx="381" cy="141" r="2.1" fill="#ffffff" opacity="0.22"/>
<circle cx="109" cy="101" r="37" fill="#f0dfa6" opacity="0.1"/>
<circle cx="221" cy="145" r="51" fill="#f0dfa6" opacity="0.1"/>
<circle cx="209" cy="158" r="60" fill="#f0dfa6" opacity="0.1"/>
<rect x="120" y="90" width="160" height="110" rx="8" fill="none" stroke="#f0dfa6" stroke-width="2.5" opacity="0.55"/>
<circle cx="200" cy="145" r="34" fill="none" stroke="#f0dfa6" stroke-width="3" opacity="0.6"/>
<circle cx="200" cy="145" r="13" fill="#f0dfa6" opacity="0.5"/>
<line x1="0" y1="234" x2="400" y2="13" stroke="#d4af37" stroke-width="1.5" opacity="0.35"/>
<text x="24" y="238" font-family="Montserrat, sans-serif" font-size="15" font-weight="700" fill="#ffffff">Fashion Photography</text>
<text x="24" y="254" font-family="Poppins, sans-serif" font-size="10" fill="#d4af37" letter-spacing="1">Photography &amp; Videography</text>
</svg>