<svg xmlns="http://www.w3.org/2000/svg" viewBox="0 0 400 260" role="img" aria-label="Product Photography">
<defs>
  <linearGradient id="pc112" x1="0%" y1="0%" x2="100%" y2="100%">
    <stop offset="0%" stop-color="#0b3d91"/>
    <stop offset="100%" stop-color="#d4af37"/>
  </linearGradient>
</defs>
<rect width="400" height="260" fill="url(#pc112)"/>
<circle cx="192" cy="173" r="1.9" fill="#ffffff" opacity="0.20"/>
<circle cx="361" cy="195" r="1.2" fill="#ffffff" opacity="0.12"/>
<circle cx="182" cy="101" r="2.3" fill="#ffffff" opacity="0.20"/>
<circle cx="187" cy="91" r="1.3" fill="#ffffff" opacity="0.18"/>
<circle cx="370" cy="44" r="1.6" fill="#ffffff" opacity="0.14"/>
<circle cx="244" cy="66" r="1.1" fill="#ffffff" opacity="0.20"/>
<circle cx="123" cy="168" r="2.3" fill="#ffffff" opacity="0.18"/>
<circle cx="365" cy="209" r="1.1" fill="#ffffff" opacity="0.12"/>
<circle cx="265" cy="124" r="1.0" fill="#ffffff" opacity="0.22"/>
<circle cx="260" cy="113" r="1.7" fill="#ffffff" opacity="0.11"/>
<circle cx="195" cy="140" r="55" fill="#f0dfa6" opacity="0.1"/>
<circle cx="248" cy="168" r="60" fill="#f0dfa6" opacity="0.1"/>
<circle cx="119" cy="87" r="48" fill="#f0dfa6" opacity="0.1"/>
<rect x="120" y="90" width="160" height="110" rx="8" fill="none" stroke="#f0dfa6" stroke-width="2.5" opacity="0.55"/>
<circle cx="200" cy="145" r="34" fill="none" stroke="#f0dfa6" stroke-width="3" opacity="0.6"/>
<circle cx="200" cy="145" r="13" fill="#f0dfa6" opacity="0.5"/>
<line x1="0" y1="234" x2="400" y2="13" stroke="#d4af37" stroke-width="1.5" opacity="0.35"/>
<text x="24" y="238" font-family="Montserrat, sans-serif" font-size="15" font-weight="700" fill="#ffffff">Product Photography</text>
<text x="24" y="254" font-family="Poppins, sans-serif" font-size="10" fill="#d4af37" letter-spacing="1">Photography &amp; Videography</text>
</svg>