<svg xmlns="http://www.w3.org/2000/svg" viewBox="0 0 400 260" role="img" aria-label="Food Photography">
<defs>
  <linearGradient id="pc152" x1="0%" y1="0%" x2="100%" y2="100%">
    <stop offset="0%" stop-color="#123163"/>
    <stop offset="100%" stop-color="#1a56c4"/>
  </linearGradient>
</defs>
<rect width="400" height="260" fill="url(#pc152)"/>
<circle cx="391" cy="102" r="1.2" fill="#ffffff" opacity="0.25"/>
<circle cx="319" cy="162" r="2.3" fill="#ffffff" opacity="0.19"/>
<circle cx="10" cy="198" r="1.8" fill="#ffffff" opacity="0.23"/>
<circle cx="98" cy="254" r="2.0" fill="#ffffff" opacity="0.13"/>
<circle cx="218" cy="8" r="1.4" fill="#ffffff" opacity="0.21"/>
<circle cx="129" cy="85" r="2.3" fill="#ffffff" opacity="0.24"/>
<circle cx="272" cy="113" r="2.1" fill="#ffffff" opacity="0.24"/>
<circle cx="36" cy="32" r="1.1" fill="#ffffff" opacity="0.11"/>
<circle cx="174" cy="91" r="1.3" fill="#ffffff" opacity="0.23"/>
<circle cx="89" cy="205" r="1.3" fill="#ffffff" opacity="0.21"/>
<circle cx="315" cy="107" r="36" fill="#f0dfa6" opacity="0.1"/>
<circle cx="313" cy="156" r="55" fill="#f0dfa6" opacity="0.1"/>
<circle cx="297" cy="135" r="31" fill="#f0dfa6" opacity="0.1"/>
<rect x="120" y="90" width="160" height="110" rx="8" fill="none" stroke="#f0dfa6" stroke-width="2.5" opacity="0.55"/>
<circle cx="200" cy="145" r="34" fill="none" stroke="#f0dfa6" stroke-width="3" opacity="0.6"/>
<circle cx="200" cy="145" r="13" fill="#f0dfa6" opacity="0.5"/>
<line x1="0" y1="234" x2="400" y2="13" stroke="#d4af37" stroke-width="1.5" opacity="0.35"/>
<text x="24" y="238" font-family="Montserrat, sans-serif" font-size="15" font-weight="700" fill="#ffffff">Food Photography</text>
<text x="24" y="254" font-family="Poppins, sans-serif" font-size="10" fill="#d4af37" letter-spacing="1">Photography &amp; Videography</text>
</svg>