<svg xmlns="http://www.w3.org/2000/svg" viewBox="0 0 400 260" role="img" aria-label="Business Photography">
<defs>
  <linearGradient id="pc120" x1="0%" y1="0%" x2="100%" y2="100%">
    <stop offset="0%" stop-color="#0b3d91"/>
    <stop offset="100%" stop-color="#123163"/>
  </linearGradient>
</defs>
<rect width="400" height="260" fill="url(#pc120)"/>
<circle cx="206" cy="49" r="2.3" fill="#ffffff" opacity="0.19"/>
<circle cx="236" cy="245" r="1.1" fill="#ffffff" opacity="0.21"/>
<circle cx="89" cy="65" r="1.4" fill="#ffffff" opacity="0.21"/>
<circle cx="377" cy="184" r="1.4" fill="#ffffff" opacity="0.10"/>
<circle cx="115" cy="57" r="1.7" fill="#ffffff" opacity="0.17"/>
<circle cx="46" cy="54" r="2.2" fill="#ffffff" opacity="0.20"/>
<circle cx="38" cy="225" r="1.6" fill="#ffffff" opacity="0.15"/>
<circle cx="322" cy="179" r="1.6" fill="#ffffff" opacity="0.15"/>
<circle cx="218" cy="217" r="2.0" fill="#ffffff" opacity="0.09"/>
<circle cx="12" cy="93" r="1.4" fill="#ffffff" opacity="0.21"/>
<circle cx="204" cy="83" r="68" fill="#f0dfa6" opacity="0.1"/>
<circle cx="232" cy="131" r="68" fill="#f0dfa6" opacity="0.1"/>
<circle cx="102" cy="155" r="39" fill="#f0dfa6" opacity="0.1"/>
<rect x="120" y="90" width="160" height="110" rx="8" fill="none" stroke="#f0dfa6" stroke-width="2.5" opacity="0.55"/>
<circle cx="200" cy="145" r="34" fill="none" stroke="#f0dfa6" stroke-width="3" opacity="0.6"/>
<circle cx="200" cy="145" r="13" fill="#f0dfa6" opacity="0.5"/>
<line x1="0" y1="234" x2="400" y2="13" stroke="#d4af37" stroke-width="1.5" opacity="0.35"/>
<text x="24" y="238" font-family="Montserrat, sans-serif" font-size="15" font-weight="700" fill="#ffffff">Business Photography</text>
<text x="24" y="254" font-family="Poppins, sans-serif" font-size="10" fill="#d4af37" letter-spacing="1">Photography &amp; Videography</text>
</svg>