<svg xmlns="http://www.w3.org/2000/svg" viewBox="0 0 400 260" role="img" aria-label="Event Coverage">
<defs>
  <linearGradient id="pc136" x1="0%" y1="0%" x2="100%" y2="100%">
    <stop offset="0%" stop-color="#0b3d91"/>
    <stop offset="100%" stop-color="#d4af37"/>
  </linearGradient>
</defs>
<rect width="400" height="260" fill="url(#pc136)"/>
<circle cx="230" cy="137" r="1.6" fill="#ffffff" opacity="0.21"/>
<circle cx="169" cy="36" r="1.9" fill="#ffffff" opacity="0.09"/>
<circle cx="398" cy="183" r="1.1" fill="#ffffff" opacity="0.11"/>
<circle cx="387" cy="204" r="1.9" fill="#ffffff" opacity="0.15"/>
<circle cx="327" cy="203" r="1.1" fill="#ffffff" opacity="0.21"/>
<circle cx="104" cy="199" r="1.0" fill="#ffffff" opacity="0.21"/>
<circle cx="72" cy="230" r="2.3" fill="#ffffff" opacity="0.17"/>
<circle cx="82" cy="66" r="2.2" fill="#ffffff" opacity="0.19"/>
<circle cx="299" cy="211" r="1.4" fill="#ffffff" opacity="0.19"/>
<circle cx="25" cy="139" r="1.8" fill="#ffffff" opacity="0.08"/>
<circle cx="218" cy="123" r="47" fill="#f0dfa6" opacity="0.1"/>
<circle cx="263" cy="111" r="36" fill="#f0dfa6" opacity="0.1"/>
<circle cx="233" cy="66" r="70" fill="#f0dfa6" opacity="0.1"/>
<rect x="120" y="90" width="160" height="110" rx="8" fill="none" stroke="#f0dfa6" stroke-width="2.5" opacity="0.55"/>
<circle cx="200" cy="145" r="34" fill="none" stroke="#f0dfa6" stroke-width="3" opacity="0.6"/>
<circle cx="200" cy="145" r="13" fill="#f0dfa6" opacity="0.5"/>
<line x1="0" y1="234" x2="400" y2="13" stroke="#d4af37" stroke-width="1.5" opacity="0.35"/>
<text x="24" y="238" font-family="Montserrat, sans-serif" font-size="15" font-weight="700" fill="#ffffff">Event Coverage</text>
<text x="24" y="254" font-family="Poppins, sans-serif" font-size="10" fill="#d4af37" letter-spacing="1">Photography &amp; Videography</text>
</svg>