<svg xmlns="http://www.w3.org/2000/svg" viewBox="0 0 400 260" role="img" aria-label="Promotional Shoots">
<defs>
  <linearGradient id="pc176" x1="0%" y1="0%" x2="100%" y2="100%">
    <stop offset="0%" stop-color="#123163"/>
    <stop offset="100%" stop-color="#1a56c4"/>
  </linearGradient>
</defs>
<rect width="400" height="260" fill="url(#pc176)"/>
<circle cx="12" cy="200" r="1.3" fill="#ffffff" opacity="0.10"/>
<circle cx="358" cy="165" r="1.9" fill="#ffffff" opacity="0.18"/>
<circle cx="40" cy="253" r="1.4" fill="#ffffff" opacity="0.24"/>
<circle cx="126" cy="80" r="2.2" fill="#ffffff" opacity="0.17"/>
<circle cx="369" cy="123" r="2.0" fill="#ffffff" opacity="0.08"/>
<circle cx="180" cy="61" r="1.9" fill="#ffffff" opacity="0.15"/>
<circle cx="334" cy="74" r="1.6" fill="#ffffff" opacity="0.14"/>
<circle cx="218" cy="106" r="1.1" fill="#ffffff" opacity="0.12"/>
<circle cx="176" cy="17" r="2.3" fill="#ffffff" opacity="0.10"/>
<circle cx="25" cy="144" r="1.5" fill="#ffffff" opacity="0.17"/>
<circle cx="87" cy="152" r="39" fill="#f0dfa6" opacity="0.1"/>
<circle cx="107" cy="167" r="55" fill="#f0dfa6" opacity="0.1"/>
<circle cx="231" cy="129" r="34" fill="#f0dfa6" opacity="0.1"/>
<rect x="120" y="90" width="160" height="110" rx="8" fill="none" stroke="#f0dfa6" stroke-width="2.5" opacity="0.55"/>
<circle cx="200" cy="145" r="34" fill="none" stroke="#f0dfa6" stroke-width="3" opacity="0.6"/>
<circle cx="200" cy="145" r="13" fill="#f0dfa6" opacity="0.5"/>
<line x1="0" y1="234" x2="400" y2="13" stroke="#d4af37" stroke-width="1.5" opacity="0.35"/>
<text x="24" y="238" font-family="Montserrat, sans-serif" font-size="15" font-weight="700" fill="#ffffff">Promotional Shoots</text>
<text x="24" y="254" font-family="Poppins, sans-serif" font-size="10" fill="#d4af37" letter-spacing="1">Photography &amp; Videography</text>
</svg>