<svg xmlns="http://www.w3.org/2000/svg" viewBox="0 0 400 260" role="img" aria-label="Hashtag Research">
<defs>
  <linearGradient id="pc285" x1="0%" y1="0%" x2="100%" y2="100%">
    <stop offset="0%" stop-color="#0d2647"/>
    <stop offset="100%" stop-color="#8a7124"/>
  </linearGradient>
</defs>
<rect width="400" height="260" fill="url(#pc285)"/>
<circle cx="232" cy="101" r="1.8" fill="#ffffff" opacity="0.10"/>
<circle cx="139" cy="224" r="1.1" fill="#ffffff" opacity="0.16"/>
<circle cx="57" cy="166" r="1.9" fill="#ffffff" opacity="0.13"/>
<circle cx="351" cy="32" r="2.0" fill="#ffffff" opacity="0.17"/>
<circle cx="300" cy="240" r="2.1" fill="#ffffff" opacity="0.21"/>
<circle cx="114" cy="252" r="1.6" fill="#ffffff" opacity="0.20"/>
<circle cx="342" cy="52" r="2.0" fill="#ffffff" opacity="0.22"/>
<circle cx="154" cy="56" r="1.9" fill="#ffffff" opacity="0.16"/>
<circle cx="141" cy="115" r="1.2" fill="#ffffff" opacity="0.14"/>
<circle cx="203" cy="61" r="1.4" fill="#ffffff" opacity="0.11"/>
<rect x="150" y="30" width="100" height="160" rx="16" fill="none" stroke="#f0dfa6" stroke-width="2.5" opacity="0.55"/>
<rect x="165" y="55" width="70" height="24" rx="6" fill="#f0dfa6" opacity="0.16"/>
<rect x="165" y="95" width="70" height="24" rx="6" fill="#f0dfa6" opacity="0.16"/>
<rect x="165" y="135" width="70" height="24" rx="6" fill="#f0dfa6" opacity="0.16"/>
<circle cx="90" cy="120" r="26" fill="#f0dfa6" opacity="0.12"/>
<circle cx="310" cy="120" r="26" fill="#f0dfa6" opacity="0.12"/>
<line x1="0" y1="234" x2="400" y2="13" stroke="#d4af37" stroke-width="1.5" opacity="0.35"/>
<text x="24" y="238" font-family="Montserrat, sans-serif" font-size="15" font-weight="700" fill="#ffffff">Hashtag Research</text>
<text x="24" y="254" font-family="Poppins, sans-serif" font-size="10" fill="#d4af37" letter-spacing="1">Social Media Management</text>
</svg>