<svg xmlns="http://www.w3.org/2000/svg" viewBox="0 0 400 260" role="img" aria-label="Post Scheduling">
<defs>
  <linearGradient id="pc253" x1="0%" y1="0%" x2="100%" y2="100%">
    <stop offset="0%" stop-color="#071b35"/>
    <stop offset="100%" stop-color="#0b3d91"/>
  </linearGradient>
</defs>
<rect width="400" height="260" fill="url(#pc253)"/>
<circle cx="215" cy="99" r="2.2" fill="#ffffff" opacity="0.19"/>
<circle cx="392" cy="59" r="2.2" fill="#ffffff" opacity="0.09"/>
<circle cx="112" cy="84" r="1.8" fill="#ffffff" opacity="0.08"/>
<circle cx="91" cy="10" r="1.6" fill="#ffffff" opacity="0.15"/>
<circle cx="194" cy="21" r="1.9" fill="#ffffff" opacity="0.20"/>
<circle cx="319" cy="253" r="1.7" fill="#ffffff" opacity="0.22"/>
<circle cx="293" cy="42" r="1.7" fill="#ffffff" opacity="0.14"/>
<circle cx="70" cy="99" r="2.2" fill="#ffffff" opacity="0.19"/>
<circle cx="240" cy="229" r="2.3" fill="#ffffff" opacity="0.14"/>
<circle cx="337" cy="42" r="1.7" fill="#ffffff" opacity="0.22"/>
<rect x="150" y="30" width="100" height="160" rx="16" fill="none" stroke="#f0dfa6" stroke-width="2.5" opacity="0.55"/>
<rect x="165" y="55" width="70" height="24" rx="6" fill="#f0dfa6" opacity="0.16"/>
<rect x="165" y="95" width="70" height="24" rx="6" fill="#f0dfa6" opacity="0.16"/>
<rect x="165" y="135" width="70" height="24" rx="6" fill="#f0dfa6" opacity="0.16"/>
<circle cx="90" cy="120" r="26" fill="#f0dfa6" opacity="0.12"/>
<circle cx="310" cy="120" r="26" fill="#f0dfa6" opacity="0.12"/>
<line x1="0" y1="234" x2="400" y2="13" stroke="#d4af37" stroke-width="1.5" opacity="0.35"/>
<text x="24" y="238" font-family="Montserrat, sans-serif" font-size="15" font-weight="700" fill="#ffffff">Post Scheduling</text>
<text x="24" y="254" font-family="Poppins, sans-serif" font-size="10" fill="#d4af37" letter-spacing="1">Social Media Management</text>
</svg>