<svg xmlns="http://www.w3.org/2000/svg" viewBox="0 0 400 260" role="img" aria-label="Caption Writing">
<defs>
  <linearGradient id="pc277" x1="0%" y1="0%" x2="100%" y2="100%">
    <stop offset="0%" stop-color="#071b35"/>
    <stop offset="100%" stop-color="#0b3d91"/>
  </linearGradient>
</defs>
<rect width="400" height="260" fill="url(#pc277)"/>
<circle cx="361" cy="239" r="1.3" fill="#ffffff" opacity="0.09"/>
<circle cx="190" cy="153" r="1.9" fill="#ffffff" opacity="0.13"/>
<circle cx="233" cy="150" r="1.3" fill="#ffffff" opacity="0.12"/>
<circle cx="286" cy="210" r="1.4" fill="#ffffff" opacity="0.10"/>
<circle cx="329" cy="118" r="1.2" fill="#ffffff" opacity="0.16"/>
<circle cx="62" cy="129" r="1.3" fill="#ffffff" opacity="0.20"/>
<circle cx="185" cy="167" r="1.4" fill="#ffffff" opacity="0.21"/>
<circle cx="215" cy="257" r="2.3" fill="#ffffff" opacity="0.09"/>
<circle cx="166" cy="33" r="1.6" fill="#ffffff" opacity="0.20"/>
<circle cx="362" cy="86" r="1.3" fill="#ffffff" opacity="0.10"/>
<rect x="150" y="30" width="100" height="160" rx="16" fill="none" stroke="#f0dfa6" stroke-width="2.5" opacity="0.55"/>
<rect x="165" y="55" width="70" height="24" rx="6" fill="#f0dfa6" opacity="0.16"/>
<rect x="165" y="95" width="70" height="24" rx="6" fill="#f0dfa6" opacity="0.16"/>
<rect x="165" y="135" width="70" height="24" rx="6" fill="#f0dfa6" opacity="0.16"/>
<circle cx="90" cy="120" r="26" fill="#f0dfa6" opacity="0.12"/>
<circle cx="310" cy="120" r="26" fill="#f0dfa6" opacity="0.12"/>
<line x1="0" y1="234" x2="400" y2="13" stroke="#d4af37" stroke-width="1.5" opacity="0.35"/>
<text x="24" y="238" font-family="Montserrat, sans-serif" font-size="15" font-weight="700" fill="#ffffff">Caption Writing</text>
<text x="24" y="254" font-family="Poppins, sans-serif" font-size="10" fill="#d4af37" letter-spacing="1">Social Media Management</text>
</svg>