<svg xmlns="http://www.w3.org/2000/svg" viewBox="0 0 400 260" role="img" aria-label="YouTube Shorts">
<defs>
  <linearGradient id="pc23" x1="0%" y1="0%" x2="100%" y2="100%">
    <stop offset="0%" stop-color="#071b35"/>
    <stop offset="100%" stop-color="#1a56c4"/>
  </linearGradient>
</defs>
<rect width="400" height="260" fill="url(#pc23)"/>
<circle cx="370" cy="247" r="2.2" fill="#ffffff" opacity="0.09"/>
<circle cx="237" cy="110" r="1.7" fill="#ffffff" opacity="0.10"/>
<circle cx="77" cy="116" r="1.3" fill="#ffffff" opacity="0.16"/>
<circle cx="10" cy="22" r="2.0" fill="#ffffff" opacity="0.15"/>
<circle cx="205" cy="191" r="1.5" fill="#ffffff" opacity="0.09"/>
<circle cx="313" cy="153" r="1.9" fill="#ffffff" opacity="0.19"/>
<circle cx="388" cy="94" r="2.1" fill="#ffffff" opacity="0.14"/>
<circle cx="229" cy="172" r="1.4" fill="#ffffff" opacity="0.09"/>
<circle cx="190" cy="187" r="1.8" fill="#ffffff" opacity="0.16"/>
<circle cx="257" cy="47" r="1.2" fill="#ffffff" opacity="0.13"/>
<rect x="30" y="40" width="340" height="180" rx="10" fill="none" stroke="#f0dfa6" stroke-width="2" opacity="0.5"/>
<circle cx="200" cy="130" r="34" fill="#f0dfa6" opacity="0.16"/>
<path d="M190 115 L190 145 L216 130 Z" fill="#f0dfa6" opacity="0.7"/>
<rect x="40" y="200" width="60" height="10" rx="3" fill="#f0dfa6" opacity="0.25"/>
<rect x="120" y="200" width="60" height="10" rx="3" fill="#f0dfa6" opacity="0.25"/>
<rect x="200" y="200" width="60" height="10" rx="3" fill="#f0dfa6" opacity="0.25"/>
<rect x="280" y="200" width="60" height="10" rx="3" fill="#f0dfa6" opacity="0.25"/>
<line x1="0" y1="234" x2="400" y2="13" stroke="#d4af37" stroke-width="1.5" opacity="0.35"/>
<text x="24" y="238" font-family="Montserrat, sans-serif" font-size="15" font-weight="700" fill="#ffffff">YouTube Shorts</text>
<text x="24" y="254" font-family="Poppins, sans-serif" font-size="10" fill="#d4af37" letter-spacing="1">Video Editing</text>
</svg>