<svg xmlns="http://www.w3.org/2000/svg" viewBox="0 0 400 260" role="img" aria-label="Promotional Videos">
<defs>
  <linearGradient id="pc31" x1="0%" y1="0%" x2="100%" y2="100%">
    <stop offset="0%" stop-color="#071b35"/>
    <stop offset="100%" stop-color="#0b3d91"/>
  </linearGradient>
</defs>
<rect width="400" height="260" fill="url(#pc31)"/>
<circle cx="5" cy="29" r="1.5" fill="#ffffff" opacity="0.20"/>
<circle cx="55" cy="29" r="1.3" fill="#ffffff" opacity="0.21"/>
<circle cx="59" cy="193" r="1.9" fill="#ffffff" opacity="0.10"/>
<circle cx="214" cy="116" r="1.6" fill="#ffffff" opacity="0.25"/>
<circle cx="37" cy="5" r="2.3" fill="#ffffff" opacity="0.15"/>
<circle cx="79" cy="86" r="1.5" fill="#ffffff" opacity="0.24"/>
<circle cx="84" cy="56" r="1.8" fill="#ffffff" opacity="0.17"/>
<circle cx="381" cy="218" r="1.5" fill="#ffffff" opacity="0.11"/>
<circle cx="335" cy="257" r="1.0" fill="#ffffff" opacity="0.20"/>
<circle cx="347" cy="169" r="1.3" fill="#ffffff" opacity="0.22"/>
<rect x="30" y="40" width="340" height="180" rx="10" fill="none" stroke="#f0dfa6" stroke-width="2" opacity="0.5"/>
<circle cx="200" cy="130" r="34" fill="#f0dfa6" opacity="0.16"/>
<path d="M190 115 L190 145 L216 130 Z" fill="#f0dfa6" opacity="0.7"/>
<rect x="40" y="200" width="60" height="10" rx="3" fill="#f0dfa6" opacity="0.25"/>
<rect x="120" y="200" width="60" height="10" rx="3" fill="#f0dfa6" opacity="0.25"/>
<rect x="200" y="200" width="60" height="10" rx="3" fill="#f0dfa6" opacity="0.25"/>
<rect x="280" y="200" width="60" height="10" rx="3" fill="#f0dfa6" opacity="0.25"/>
<line x1="0" y1="234" x2="400" y2="13" stroke="#d4af37" stroke-width="1.5" opacity="0.35"/>
<text x="24" y="238" font-family="Montserrat, sans-serif" font-size="15" font-weight="700" fill="#ffffff">Promotional Videos</text>
<text x="24" y="254" font-family="Poppins, sans-serif" font-size="10" fill="#d4af37" letter-spacing="1">Video Editing</text>
</svg>