<svg xmlns="http://www.w3.org/2000/svg" viewBox="0 0 400 260" role="img" aria-label="Corporate Videos">
<defs>
  <linearGradient id="pc39" x1="0%" y1="0%" x2="100%" y2="100%">
    <stop offset="0%" stop-color="#0d2647"/>
    <stop offset="100%" stop-color="#8a7124"/>
  </linearGradient>
</defs>
<rect width="400" height="260" fill="url(#pc39)"/>
<circle cx="84" cy="100" r="1.3" fill="#ffffff" opacity="0.15"/>
<circle cx="225" cy="168" r="1.4" fill="#ffffff" opacity="0.14"/>
<circle cx="71" cy="212" r="1.4" fill="#ffffff" opacity="0.23"/>
<circle cx="29" cy="2" r="1.6" fill="#ffffff" opacity="0.15"/>
<circle cx="301" cy="226" r="1.7" fill="#ffffff" opacity="0.13"/>
<circle cx="286" cy="120" r="1.4" fill="#ffffff" opacity="0.13"/>
<circle cx="0" cy="184" r="1.1" fill="#ffffff" opacity="0.11"/>
<circle cx="248" cy="161" r="1.9" fill="#ffffff" opacity="0.19"/>
<circle cx="320" cy="246" r="2.4" fill="#ffffff" opacity="0.15"/>
<circle cx="140" cy="35" r="1.6" fill="#ffffff" opacity="0.11"/>
<rect x="30" y="40" width="340" height="180" rx="10" fill="none" stroke="#f0dfa6" stroke-width="2" opacity="0.5"/>
<circle cx="200" cy="130" r="34" fill="#f0dfa6" opacity="0.16"/>
<path d="M190 115 L190 145 L216 130 Z" fill="#f0dfa6" opacity="0.7"/>
<rect x="40" y="200" width="60" height="10" rx="3" fill="#f0dfa6" opacity="0.25"/>
<rect x="120" y="200" width="60" height="10" rx="3" fill="#f0dfa6" opacity="0.25"/>
<rect x="200" y="200" width="60" height="10" rx="3" fill="#f0dfa6" opacity="0.25"/>
<rect x="280" y="200" width="60" height="10" rx="3" fill="#f0dfa6" opacity="0.25"/>
<line x1="0" y1="234" x2="400" y2="13" stroke="#d4af37" stroke-width="1.5" opacity="0.35"/>
<text x="24" y="238" font-family="Montserrat, sans-serif" font-size="15" font-weight="700" fill="#ffffff">Corporate Videos</text>
<text x="24" y="254" font-family="Poppins, sans-serif" font-size="10" fill="#d4af37" letter-spacing="1">Video Editing</text>
</svg>