<svg xmlns="http://www.w3.org/2000/svg" viewBox="0 0 400 260" role="img" aria-label="Product Videos">
<defs>
  <linearGradient id="pc47" x1="0%" y1="0%" x2="100%" y2="100%">
    <stop offset="0%" stop-color="#071b35"/>
    <stop offset="100%" stop-color="#1a56c4"/>
  </linearGradient>
</defs>
<rect width="400" height="260" fill="url(#pc47)"/>
<circle cx="141" cy="112" r="1.6" fill="#ffffff" opacity="0.14"/>
<circle cx="205" cy="102" r="1.1" fill="#ffffff" opacity="0.15"/>
<circle cx="9" cy="27" r="1.4" fill="#ffffff" opacity="0.24"/>
<circle cx="193" cy="142" r="2.3" fill="#ffffff" opacity="0.23"/>
<circle cx="227" cy="60" r="1.7" fill="#ffffff" opacity="0.14"/>
<circle cx="383" cy="9" r="1.5" fill="#ffffff" opacity="0.20"/>
<circle cx="240" cy="145" r="2.1" fill="#ffffff" opacity="0.12"/>
<circle cx="336" cy="238" r="1.0" fill="#ffffff" opacity="0.14"/>
<circle cx="145" cy="100" r="1.8" fill="#ffffff" opacity="0.12"/>
<circle cx="260" cy="229" r="2.3" fill="#ffffff" opacity="0.22"/>
<rect x="30" y="40" width="340" height="180" rx="10" fill="none" stroke="#f0dfa6" stroke-width="2" opacity="0.5"/>
<circle cx="200" cy="130" r="34" fill="#f0dfa6" opacity="0.16"/>
<path d="M190 115 L190 145 L216 130 Z" fill="#f0dfa6" opacity="0.7"/>
<rect x="40" y="200" width="60" height="10" rx="3" fill="#f0dfa6" opacity="0.25"/>
<rect x="120" y="200" width="60" height="10" rx="3" fill="#f0dfa6" opacity="0.25"/>
<rect x="200" y="200" width="60" height="10" rx="3" fill="#f0dfa6" opacity="0.25"/>
<rect x="280" y="200" width="60" height="10" rx="3" fill="#f0dfa6" opacity="0.25"/>
<line x1="0" y1="234" x2="400" y2="13" stroke="#d4af37" stroke-width="1.5" opacity="0.35"/>
<text x="24" y="238" font-family="Montserrat, sans-serif" font-size="15" font-weight="700" fill="#ffffff">Product Videos</text>
<text x="24" y="254" font-family="Poppins, sans-serif" font-size="10" fill="#d4af37" letter-spacing="1">Video Editing</text>
</svg>