<svg xmlns="http://www.w3.org/2000/svg" viewBox="0 0 400 260" role="img" aria-label="Domain &amp; Hosting Setup">
<defs>
  <linearGradient id="pc421" x1="0%" y1="0%" x2="100%" y2="100%">
    <stop offset="0%" stop-color="#071b35"/>
    <stop offset="100%" stop-color="#0b3d91"/>
  </linearGradient>
</defs>
<rect width="400" height="260" fill="url(#pc421)"/>
<circle cx="262" cy="159" r="2.2" fill="#ffffff" opacity="0.16"/>
<circle cx="195" cy="84" r="2.2" fill="#ffffff" opacity="0.16"/>
<circle cx="239" cy="98" r="1.2" fill="#ffffff" opacity="0.24"/>
<circle cx="10" cy="202" r="1.9" fill="#ffffff" opacity="0.22"/>
<circle cx="211" cy="116" r="1.4" fill="#ffffff" opacity="0.19"/>
<circle cx="5" cy="113" r="2.2" fill="#ffffff" opacity="0.11"/>
<circle cx="202" cy="230" r="1.8" fill="#ffffff" opacity="0.11"/>
<circle cx="123" cy="106" r="1.7" fill="#ffffff" opacity="0.11"/>
<circle cx="185" cy="186" r="1.9" fill="#ffffff" opacity="0.18"/>
<circle cx="26" cy="80" r="1.2" fill="#ffffff" opacity="0.11"/>
<rect x="40" y="40" width="320" height="160" rx="10" fill="none" stroke="#f0dfa6" stroke-width="2" opacity="0.55"/>
<rect x="40" y="40" width="320" height="24" fill="#f0dfa6" opacity="0.18"/>
<rect x="60" y="90" width="80" height="90" rx="6" fill="#f0dfa6" opacity="0.12"/>
<rect x="160" y="90" width="80" height="90" rx="6" fill="#f0dfa6" opacity="0.12"/>
<rect x="260" y="90" width="80" height="90" rx="6" fill="#f0dfa6" opacity="0.12"/>
<line x1="0" y1="234" x2="400" y2="13" stroke="#d4af37" stroke-width="1.5" opacity="0.35"/>
<text x="24" y="238" font-family="Montserrat, sans-serif" font-size="15" font-weight="700" fill="#ffffff">Domain &amp; Hosting Setup</text>
<text x="24" y="254" font-family="Poppins, sans-serif" font-size="10" fill="#d4af37" letter-spacing="1">Website Development</text>
</svg>