<svg xmlns="http://www.w3.org/2000/svg" viewBox="0 0 400 260" role="img" aria-label="Landing Pages">
<defs>
  <linearGradient id="pc397" x1="0%" y1="0%" x2="100%" y2="100%">
    <stop offset="0%" stop-color="#071b35"/>
    <stop offset="100%" stop-color="#0b3d91"/>
  </linearGradient>
</defs>
<rect width="400" height="260" fill="url(#pc397)"/>
<circle cx="48" cy="103" r="2.1" fill="#ffffff" opacity="0.08"/>
<circle cx="111" cy="212" r="1.3" fill="#ffffff" opacity="0.15"/>
<circle cx="45" cy="85" r="1.9" fill="#ffffff" opacity="0.25"/>
<circle cx="340" cy="91" r="1.9" fill="#ffffff" opacity="0.20"/>
<circle cx="184" cy="167" r="1.5" fill="#ffffff" opacity="0.21"/>
<circle cx="12" cy="119" r="1.6" fill="#ffffff" opacity="0.24"/>
<circle cx="271" cy="193" r="1.8" fill="#ffffff" opacity="0.12"/>
<circle cx="195" cy="49" r="2.0" fill="#ffffff" opacity="0.14"/>
<circle cx="214" cy="204" r="1.5" fill="#ffffff" opacity="0.11"/>
<circle cx="87" cy="114" r="2.0" fill="#ffffff" opacity="0.22"/>
<rect x="40" y="40" width="320" height="160" rx="10" fill="none" stroke="#f0dfa6" stroke-width="2" opacity="0.55"/>
<rect x="40" y="40" width="320" height="24" fill="#f0dfa6" opacity="0.18"/>
<rect x="60" y="90" width="80" height="90" rx="6" fill="#f0dfa6" opacity="0.12"/>
<rect x="160" y="90" width="80" height="90" rx="6" fill="#f0dfa6" opacity="0.12"/>
<rect x="260" y="90" width="80" height="90" rx="6" fill="#f0dfa6" opacity="0.12"/>
<line x1="0" y1="234" x2="400" y2="13" stroke="#d4af37" stroke-width="1.5" opacity="0.35"/>
<text x="24" y="238" font-family="Montserrat, sans-serif" font-size="15" font-weight="700" fill="#ffffff">Landing Pages</text>
<text x="24" y="254" font-family="Poppins, sans-serif" font-size="10" fill="#d4af37" letter-spacing="1">Website Development</text>
</svg>