<svg xmlns="http://www.w3.org/2000/svg" viewBox="0 0 400 260" role="img" aria-label="Website Redesign">
<defs>
  <linearGradient id="pc405" x1="0%" y1="0%" x2="100%" y2="100%">
    <stop offset="0%" stop-color="#0d2647"/>
    <stop offset="100%" stop-color="#8a7124"/>
  </linearGradient>
</defs>
<rect width="400" height="260" fill="url(#pc405)"/>
<circle cx="17" cy="252" r="2.0" fill="#ffffff" opacity="0.22"/>
<circle cx="336" cy="159" r="1.9" fill="#ffffff" opacity="0.10"/>
<circle cx="162" cy="154" r="1.3" fill="#ffffff" opacity="0.11"/>
<circle cx="132" cy="4" r="1.7" fill="#ffffff" opacity="0.17"/>
<circle cx="116" cy="42" r="2.1" fill="#ffffff" opacity="0.20"/>
<circle cx="129" cy="133" r="1.8" fill="#ffffff" opacity="0.16"/>
<circle cx="393" cy="103" r="2.0" fill="#ffffff" opacity="0.20"/>
<circle cx="167" cy="174" r="1.8" fill="#ffffff" opacity="0.19"/>
<circle cx="91" cy="237" r="2.0" fill="#ffffff" opacity="0.13"/>
<circle cx="396" cy="22" r="1.7" fill="#ffffff" opacity="0.13"/>
<rect x="40" y="40" width="320" height="160" rx="10" fill="none" stroke="#f0dfa6" stroke-width="2" opacity="0.55"/>
<rect x="40" y="40" width="320" height="24" fill="#f0dfa6" opacity="0.18"/>
<rect x="60" y="90" width="80" height="90" rx="6" fill="#f0dfa6" opacity="0.12"/>
<rect x="160" y="90" width="80" height="90" rx="6" fill="#f0dfa6" opacity="0.12"/>
<rect x="260" y="90" width="80" height="90" rx="6" fill="#f0dfa6" opacity="0.12"/>
<line x1="0" y1="234" x2="400" y2="13" stroke="#d4af37" stroke-width="1.5" opacity="0.35"/>
<text x="24" y="238" font-family="Montserrat, sans-serif" font-size="15" font-weight="700" fill="#ffffff">Website Redesign</text>
<text x="24" y="254" font-family="Poppins, sans-serif" font-size="10" fill="#d4af37" letter-spacing="1">Website Development</text>
</svg>