<svg xmlns="http://www.w3.org/2000/svg" viewBox="0 0 400 260" role="img" aria-label="Portfolio Websites">
<defs>
  <linearGradient id="pc365" x1="0%" y1="0%" x2="100%" y2="100%">
    <stop offset="0%" stop-color="#071b35"/>
    <stop offset="100%" stop-color="#1a56c4"/>
  </linearGradient>
</defs>
<rect width="400" height="260" fill="url(#pc365)"/>
<circle cx="271" cy="240" r="2.1" fill="#ffffff" opacity="0.13"/>
<circle cx="77" cy="101" r="1.5" fill="#ffffff" opacity="0.17"/>
<circle cx="12" cy="198" r="1.0" fill="#ffffff" opacity="0.16"/>
<circle cx="239" cy="74" r="1.5" fill="#ffffff" opacity="0.21"/>
<circle cx="237" cy="56" r="1.9" fill="#ffffff" opacity="0.22"/>
<circle cx="315" cy="83" r="1.1" fill="#ffffff" opacity="0.11"/>
<circle cx="132" cy="139" r="1.3" fill="#ffffff" opacity="0.21"/>
<circle cx="231" cy="254" r="1.2" fill="#ffffff" opacity="0.21"/>
<circle cx="59" cy="2" r="1.5" fill="#ffffff" opacity="0.17"/>
<circle cx="347" cy="197" r="1.7" fill="#ffffff" opacity="0.24"/>
<rect x="40" y="40" width="320" height="160" rx="10" fill="none" stroke="#f0dfa6" stroke-width="2" opacity="0.55"/>
<rect x="40" y="40" width="320" height="24" fill="#f0dfa6" opacity="0.18"/>
<rect x="60" y="90" width="80" height="90" rx="6" fill="#f0dfa6" opacity="0.12"/>
<rect x="160" y="90" width="80" height="90" rx="6" fill="#f0dfa6" opacity="0.12"/>
<rect x="260" y="90" width="80" height="90" rx="6" fill="#f0dfa6" opacity="0.12"/>
<line x1="0" y1="234" x2="400" y2="13" stroke="#d4af37" stroke-width="1.5" opacity="0.35"/>
<text x="24" y="238" font-family="Montserrat, sans-serif" font-size="15" font-weight="700" fill="#ffffff">Portfolio Websites</text>
<text x="24" y="254" font-family="Poppins, sans-serif" font-size="10" fill="#d4af37" letter-spacing="1">Website Development</text>
</svg>