<svg xmlns="http://www.w3.org/2000/svg" viewBox="0 0 400 260" role="img" aria-label="E-commerce Websites">
<defs>
  <linearGradient id="pc373" x1="0%" y1="0%" x2="100%" y2="100%">
    <stop offset="0%" stop-color="#071b35"/>
    <stop offset="100%" stop-color="#0b3d91"/>
  </linearGradient>
</defs>
<rect width="400" height="260" fill="url(#pc373)"/>
<circle cx="14" cy="229" r="2.0" fill="#ffffff" opacity="0.10"/>
<circle cx="77" cy="159" r="1.5" fill="#ffffff" opacity="0.15"/>
<circle cx="303" cy="255" r="1.6" fill="#ffffff" opacity="0.25"/>
<circle cx="29" cy="248" r="1.5" fill="#ffffff" opacity="0.23"/>
<circle cx="103" cy="164" r="1.0" fill="#ffffff" opacity="0.10"/>
<circle cx="256" cy="217" r="1.2" fill="#ffffff" opacity="0.14"/>
<circle cx="256" cy="97" r="2.4" fill="#ffffff" opacity="0.24"/>
<circle cx="356" cy="173" r="2.2" fill="#ffffff" opacity="0.16"/>
<circle cx="378" cy="158" r="1.7" fill="#ffffff" opacity="0.25"/>
<circle cx="277" cy="242" r="1.5" fill="#ffffff" opacity="0.14"/>
<rect x="40" y="40" width="320" height="160" rx="10" fill="none" stroke="#f0dfa6" stroke-width="2" opacity="0.55"/>
<rect x="40" y="40" width="320" height="24" fill="#f0dfa6" opacity="0.18"/>
<rect x="60" y="90" width="80" height="90" rx="6" fill="#f0dfa6" opacity="0.12"/>
<rect x="160" y="90" width="80" height="90" rx="6" fill="#f0dfa6" opacity="0.12"/>
<rect x="260" y="90" width="80" height="90" rx="6" fill="#f0dfa6" opacity="0.12"/>
<line x1="0" y1="234" x2="400" y2="13" stroke="#d4af37" stroke-width="1.5" opacity="0.35"/>
<text x="24" y="238" font-family="Montserrat, sans-serif" font-size="15" font-weight="700" fill="#ffffff">E-commerce Websites</text>
<text x="24" y="254" font-family="Poppins, sans-serif" font-size="10" fill="#d4af37" letter-spacing="1">Website Development</text>
</svg>