<svg xmlns="http://www.w3.org/2000/svg" viewBox="0 0 400 260" role="img" aria-label="Business Websites">
<defs>
  <linearGradient id="pc357" x1="0%" y1="0%" x2="100%" y2="100%">
    <stop offset="0%" stop-color="#0d2647"/>
    <stop offset="100%" stop-color="#8a7124"/>
  </linearGradient>
</defs>
<rect width="400" height="260" fill="url(#pc357)"/>
<circle cx="74" cy="243" r="1.1" fill="#ffffff" opacity="0.24"/>
<circle cx="108" cy="140" r="1.3" fill="#ffffff" opacity="0.15"/>
<circle cx="167" cy="41" r="1.1" fill="#ffffff" opacity="0.13"/>
<circle cx="194" cy="30" r="1.6" fill="#ffffff" opacity="0.15"/>
<circle cx="395" cy="24" r="1.3" fill="#ffffff" opacity="0.10"/>
<circle cx="286" cy="169" r="1.8" fill="#ffffff" opacity="0.23"/>
<circle cx="228" cy="83" r="1.1" fill="#ffffff" opacity="0.10"/>
<circle cx="381" cy="29" r="2.4" fill="#ffffff" opacity="0.25"/>
<circle cx="0" cy="178" r="1.0" fill="#ffffff" opacity="0.10"/>
<circle cx="336" cy="180" r="2.1" fill="#ffffff" opacity="0.11"/>
<rect x="40" y="40" width="320" height="160" rx="10" fill="none" stroke="#f0dfa6" stroke-width="2" opacity="0.55"/>
<rect x="40" y="40" width="320" height="24" fill="#f0dfa6" opacity="0.18"/>
<rect x="60" y="90" width="80" height="90" rx="6" fill="#f0dfa6" opacity="0.12"/>
<rect x="160" y="90" width="80" height="90" rx="6" fill="#f0dfa6" opacity="0.12"/>
<rect x="260" y="90" width="80" height="90" rx="6" fill="#f0dfa6" opacity="0.12"/>
<line x1="0" y1="234" x2="400" y2="13" stroke="#d4af37" stroke-width="1.5" opacity="0.35"/>
<text x="24" y="238" font-family="Montserrat, sans-serif" font-size="15" font-weight="700" fill="#ffffff">Business Websites</text>
<text x="24" y="254" font-family="Poppins, sans-serif" font-size="10" fill="#d4af37" letter-spacing="1">Website Development</text>
</svg>