<svg xmlns="http://www.w3.org/2000/svg" viewBox="0 0 400 260" role="img" aria-label="Real Estate Websites">
<defs>
  <linearGradient id="pc389" x1="0%" y1="0%" x2="100%" y2="100%">
    <stop offset="0%" stop-color="#071b35"/>
    <stop offset="100%" stop-color="#1a56c4"/>
  </linearGradient>
</defs>
<rect width="400" height="260" fill="url(#pc389)"/>
<circle cx="268" cy="166" r="1.8" fill="#ffffff" opacity="0.15"/>
<circle cx="88" cy="123" r="2.1" fill="#ffffff" opacity="0.10"/>
<circle cx="78" cy="63" r="1.6" fill="#ffffff" opacity="0.09"/>
<circle cx="118" cy="194" r="1.5" fill="#ffffff" opacity="0.10"/>
<circle cx="366" cy="198" r="2.2" fill="#ffffff" opacity="0.21"/>
<circle cx="60" cy="204" r="1.8" fill="#ffffff" opacity="0.18"/>
<circle cx="95" cy="150" r="1.6" fill="#ffffff" opacity="0.24"/>
<circle cx="318" cy="202" r="1.6" fill="#ffffff" opacity="0.11"/>
<circle cx="48" cy="249" r="2.0" fill="#ffffff" opacity="0.13"/>
<circle cx="50" cy="52" r="1.2" fill="#ffffff" opacity="0.13"/>
<rect x="40" y="40" width="320" height="160" rx="10" fill="none" stroke="#f0dfa6" stroke-width="2" opacity="0.55"/>
<rect x="40" y="40" width="320" height="24" fill="#f0dfa6" opacity="0.18"/>
<rect x="60" y="90" width="80" height="90" rx="6" fill="#f0dfa6" opacity="0.12"/>
<rect x="160" y="90" width="80" height="90" rx="6" fill="#f0dfa6" opacity="0.12"/>
<rect x="260" y="90" width="80" height="90" rx="6" fill="#f0dfa6" opacity="0.12"/>
<line x1="0" y1="234" x2="400" y2="13" stroke="#d4af37" stroke-width="1.5" opacity="0.35"/>
<text x="24" y="238" font-family="Montserrat, sans-serif" font-size="15" font-weight="700" fill="#ffffff">Real Estate Websites</text>
<text x="24" y="254" font-family="Poppins, sans-serif" font-size="10" fill="#d4af37" letter-spacing="1">Website Development</text>
</svg>