<svg xmlns="http://www.w3.org/2000/svg" viewBox="0 0 400 260" role="img" aria-label="Restaurant Websites">
<defs>
  <linearGradient id="pc381" x1="0%" y1="0%" x2="100%" y2="100%">
    <stop offset="0%" stop-color="#0d2647"/>
    <stop offset="100%" stop-color="#8a7124"/>
  </linearGradient>
</defs>
<rect width="400" height="260" fill="url(#pc381)"/>
<circle cx="192" cy="253" r="1.0" fill="#ffffff" opacity="0.23"/>
<circle cx="113" cy="55" r="1.7" fill="#ffffff" opacity="0.18"/>
<circle cx="381" cy="70" r="1.3" fill="#ffffff" opacity="0.19"/>
<circle cx="326" cy="246" r="1.7" fill="#ffffff" opacity="0.23"/>
<circle cx="8" cy="157" r="2.0" fill="#ffffff" opacity="0.18"/>
<circle cx="318" cy="205" r="1.6" fill="#ffffff" opacity="0.10"/>
<circle cx="184" cy="142" r="1.5" fill="#ffffff" opacity="0.23"/>
<circle cx="290" cy="140" r="1.3" fill="#ffffff" opacity="0.15"/>
<circle cx="20" cy="68" r="1.7" fill="#ffffff" opacity="0.13"/>
<circle cx="186" cy="177" r="2.0" fill="#ffffff" opacity="0.16"/>
<rect x="40" y="40" width="320" height="160" rx="10" fill="none" stroke="#f0dfa6" stroke-width="2" opacity="0.55"/>
<rect x="40" y="40" width="320" height="24" fill="#f0dfa6" opacity="0.18"/>
<rect x="60" y="90" width="80" height="90" rx="6" fill="#f0dfa6" opacity="0.12"/>
<rect x="160" y="90" width="80" height="90" rx="6" fill="#f0dfa6" opacity="0.12"/>
<rect x="260" y="90" width="80" height="90" rx="6" fill="#f0dfa6" opacity="0.12"/>
<line x1="0" y1="234" x2="400" y2="13" stroke="#d4af37" stroke-width="1.5" opacity="0.35"/>
<text x="24" y="238" font-family="Montserrat, sans-serif" font-size="15" font-weight="700" fill="#ffffff">Restaurant Websites</text>
<text x="24" y="254" font-family="Poppins, sans-serif" font-size="10" fill="#d4af37" letter-spacing="1">Website Development</text>
</svg>