<svg xmlns="http://www.w3.org/2000/svg" viewBox="0 0 400 260" role="img" aria-label="Website Maintenance">
<defs>
  <linearGradient id="pc413" x1="0%" y1="0%" x2="100%" y2="100%">
    <stop offset="0%" stop-color="#071b35"/>
    <stop offset="100%" stop-color="#1a56c4"/>
  </linearGradient>
</defs>
<rect width="400" height="260" fill="url(#pc413)"/>
<circle cx="328" cy="166" r="1.7" fill="#ffffff" opacity="0.09"/>
<circle cx="283" cy="76" r="1.9" fill="#ffffff" opacity="0.10"/>
<circle cx="316" cy="72" r="1.7" fill="#ffffff" opacity="0.12"/>
<circle cx="321" cy="149" r="1.7" fill="#ffffff" opacity="0.24"/>
<circle cx="77" cy="72" r="1.4" fill="#ffffff" opacity="0.10"/>
<circle cx="127" cy="83" r="1.1" fill="#ffffff" opacity="0.14"/>
<circle cx="131" cy="258" r="2.2" fill="#ffffff" opacity="0.12"/>
<circle cx="311" cy="124" r="1.1" fill="#ffffff" opacity="0.22"/>
<circle cx="132" cy="243" r="2.3" fill="#ffffff" opacity="0.19"/>
<circle cx="199" cy="223" r="1.9" fill="#ffffff" opacity="0.17"/>
<rect x="40" y="40" width="320" height="160" rx="10" fill="none" stroke="#f0dfa6" stroke-width="2" opacity="0.55"/>
<rect x="40" y="40" width="320" height="24" fill="#f0dfa6" opacity="0.18"/>
<rect x="60" y="90" width="80" height="90" rx="6" fill="#f0dfa6" opacity="0.12"/>
<rect x="160" y="90" width="80" height="90" rx="6" fill="#f0dfa6" opacity="0.12"/>
<rect x="260" y="90" width="80" height="90" rx="6" fill="#f0dfa6" opacity="0.12"/>
<line x1="0" y1="234" x2="400" y2="13" stroke="#d4af37" stroke-width="1.5" opacity="0.35"/>
<text x="24" y="238" font-family="Montserrat, sans-serif" font-size="15" font-weight="700" fill="#ffffff">Website Maintenance</text>
<text x="24" y="254" font-family="Poppins, sans-serif" font-size="10" fill="#d4af37" letter-spacing="1">Website Development</text>
</svg>