<svg width="400" height="260" xmlns="http://www.w3.org/2000/svg" viewBox="0 0 400 260" role="img" aria-label="Social Media Posts">
  <defs>
    <linearGradient id="bg" x1="0%" y1="0%" x2="100%" y2="100%">
      <stop offset="0%" stop-color="#031520"/>
      <stop offset="100%" stop-color="#073d5e"/>
    </linearGradient>
    <pattern id="dots" width="20" height="20" patternUnits="userSpaceOnUse">
      <circle cx="10" cy="10" r="1" fill="#ffffff" opacity="0.04"/>
    </pattern>
    <filter id="glow">
      <feGaussianBlur in="SourceGraphic" stdDeviation="2.5" result="blur"/>
      <feMerge><feMergeNode in="blur"/><feMergeNode in="SourceGraphic"/></feMerge>
    </filter>
  </defs>
  <rect width="400" height="260" fill="url(#bg)"/>
  <rect width="400" height="260" fill="url(#dots)"/>
  <g filter="url(#glow)">
    
      <rect x="52" y="20" width="88" height="66" rx="8" fill="#00e5ff" opacity="0.12"/>
      <rect x="52" y="20" width="88" height="66" rx="8" fill="none" stroke="#00e5ff" stroke-width="1.8" opacity="0.6"/>
      <circle cx="96" cy="53" r="16" fill="#00e5ff" opacity="0.32"/>
    
      <rect x="158" y="20" width="88" height="66" rx="8" fill="#00e5ff" opacity="0.15"/>
      <rect x="158" y="20" width="88" height="66" rx="8" fill="none" stroke="#80deea" stroke-width="1.8" opacity="0.6"/>
      <circle cx="202" cy="53" r="16" fill="#80deea" opacity="0.32"/>
    
      <rect x="264" y="20" width="88" height="66" rx="8" fill="#00e5ff" opacity="0.18"/>
      <rect x="264" y="20" width="88" height="66" rx="8" fill="none" stroke="#00e5ff" stroke-width="1.8" opacity="0.6"/>
      <circle cx="308" cy="53" r="16" fill="#00e5ff" opacity="0.32"/>
    
      <rect x="52" y="102" width="88" height="66" rx="8" fill="#00e5ff" opacity="0.21"/>
      <rect x="52" y="102" width="88" height="66" rx="8" fill="none" stroke="#80deea" stroke-width="1.8" opacity="0.6"/>
      <circle cx="96" cy="135" r="16" fill="#80deea" opacity="0.32"/>
    
      <rect x="158" y="102" width="88" height="66" rx="8" fill="#00e5ff" opacity="0.24"/>
      <rect x="158" y="102" width="88" height="66" rx="8" fill="none" stroke="#00e5ff" stroke-width="1.8" opacity="0.6"/>
      <circle cx="202" cy="135" r="16" fill="#00e5ff" opacity="0.32"/>
    
      <rect x="264" y="102" width="88" height="66" rx="8" fill="#00e5ff" opacity="0.27"/>
      <rect x="264" y="102" width="88" height="66" rx="8" fill="none" stroke="#80deea" stroke-width="1.8" opacity="0.6"/>
      <circle cx="308" cy="135" r="16" fill="#80deea" opacity="0.32"/>
    
    <text x="165" y="195" font-family="sans-serif" font-size="18" fill="#00e5ff" opacity="0.85">♥ 2.4K  💬 318</text></g>
</svg>