<svg width="400" height="260" xmlns="http://www.w3.org/2000/svg" viewBox="0 0 400 260" role="img" aria-label="Brochures">
  <defs>
    <linearGradient id="bg" x1="0%" y1="0%" x2="100%" y2="100%">
      <stop offset="0%" stop-color="#031520"/>
      <stop offset="100%" stop-color="#073d5e"/>
    </linearGradient>
    <pattern id="dots" width="20" height="20" patternUnits="userSpaceOnUse">
      <circle cx="10" cy="10" r="1" fill="#ffffff" opacity="0.04"/>
    </pattern>
    <filter id="glow">
      <feGaussianBlur in="SourceGraphic" stdDeviation="2.5" result="blur"/>
      <feMerge><feMergeNode in="blur"/><feMergeNode in="SourceGraphic"/></feMerge>
    </filter>
  </defs>
  <rect width="400" height="260" fill="url(#bg)"/>
  <rect width="400" height="260" fill="url(#dots)"/>
  <g filter="url(#glow)">
    
      <rect x="40" y="28" width="96" height="144" rx="7" fill="none" stroke="#80deea" stroke-width="1.8" opacity="0.55"/>
      <rect x="45" y="33" width="86" height="134" rx="4" fill="#00e5ff" opacity="0.04"/>
    
      <rect x="144" y="22" width="112" height="152" rx="7" fill="none" stroke="#00e5ff" stroke-width="2.5" opacity="0.9"/>
      <rect x="149" y="27" width="102" height="142" rx="4" fill="#00e5ff" opacity="0.04"/>
    
      <rect x="264" y="28" width="96" height="144" rx="7" fill="none" stroke="#80deea" stroke-width="1.8" opacity="0.55"/>
      <rect x="269" y="33" width="86" height="134" rx="4" fill="#00e5ff" opacity="0.04"/>
    
    <rect x="160" y="50" width="80" height="12" rx="3" fill="#00e5ff" opacity="0.35"/>
    <rect x="163" y="70" width="74" height="7" rx="2" fill="#80deea" opacity="0.24"/>
    <rect x="163" y="85" width="65" height="7" rx="2" fill="#80deea" opacity="0.22"/>
    <line x1="142" y1="22" x2="142" y2="174" stroke="#00e5ff" stroke-width="1.2" opacity="0.35" stroke-dasharray="5 5"/>
    <line x1="260" y1="22" x2="260" y2="174" stroke="#00e5ff" stroke-width="1.2" opacity="0.35" stroke-dasharray="5 5"/></g>
</svg>