<svg width="400" height="260" xmlns="http://www.w3.org/2000/svg" viewBox="0 0 400 260" role="img" aria-label="Google Ads">
  <defs>
    <linearGradient id="bg" x1="0%" y1="0%" x2="100%" y2="100%">
      <stop offset="0%" stop-color="#051f1b"/>
      <stop offset="100%" stop-color="#0a3d35"/>
    </linearGradient>
    <pattern id="dots" width="20" height="20" patternUnits="userSpaceOnUse">
      <circle cx="10" cy="10" r="1" fill="#ffffff" opacity="0.04"/>
    </pattern>
    <filter id="glow">
      <feGaussianBlur in="SourceGraphic" stdDeviation="2.5" result="blur"/>
      <feMerge><feMergeNode in="blur"/><feMergeNode in="SourceGraphic"/></feMerge>
    </filter>
  </defs>
  <rect width="400" height="260" fill="url(#bg)"/>
  <rect width="400" height="260" fill="url(#dots)"/>
  <g filter="url(#glow)">
    <rect x="38" y="30" width="324" height="50" rx="25" fill="none" stroke="#00e676" stroke-width="2.5" opacity="0.9"/>
    <circle cx="344" cy="55" r="20" fill="#00e676" opacity="0.28"/>
    <text x="336" y="61" font-family="sans-serif" font-size="18" fill="#00e676" opacity="0.9">🔍</text>
    
      <rect x="38" y="100" width="324" height="30" rx="8" fill="#00e676" opacity="0.1"/>
      <rect x="48" y="105" width="24" height="10" rx="3" fill="#00e676" opacity="0.65"/>
      <rect x="80" y="105" width="215" height="10" rx="3" fill="#fff" opacity="0.38"/>
      <rect x="48" y="120" width="268" height="6" rx="2" fill="#69f0ae" opacity="0.22"/>
    
      <rect x="38" y="138" width="324" height="30" rx="8" fill="#00e676" opacity="0.08"/>
      <rect x="48" y="143" width="24" height="10" rx="3" fill="#00e676" opacity="0.65"/>
      <rect x="80" y="143" width="215" height="10" rx="3" fill="#fff" opacity="0.38"/>
      <rect x="48" y="158" width="268" height="6" rx="2" fill="#69f0ae" opacity="0.22"/>
    
      <rect x="38" y="176" width="324" height="30" rx="8" fill="#00e676" opacity="0.060000000000000005"/>
      <rect x="48" y="181" width="24" height="10" rx="3" fill="#00e676" opacity="0.65"/>
      <rect x="80" y="181" width="215" height="10" rx="3" fill="#fff" opacity="0.38"/>
      <rect x="48" y="196" width="268" height="6" rx="2" fill="#69f0ae" opacity="0.22"/>
    </g>
</svg>