<svg width="400" height="260" xmlns="http://www.w3.org/2000/svg" viewBox="0 0 400 260" role="img" aria-label="Local SEO">
  <defs>
    <linearGradient id="bg" x1="0%" y1="0%" x2="100%" y2="100%">
      <stop offset="0%" stop-color="#051f1b"/>
      <stop offset="100%" stop-color="#0a3d35"/>
    </linearGradient>
    <pattern id="dots" width="20" height="20" patternUnits="userSpaceOnUse">
      <circle cx="10" cy="10" r="1" fill="#ffffff" opacity="0.04"/>
    </pattern>
    <filter id="glow">
      <feGaussianBlur in="SourceGraphic" stdDeviation="2.5" result="blur"/>
      <feMerge><feMergeNode in="blur"/><feMergeNode in="SourceGraphic"/></feMerge>
    </filter>
  </defs>
  <rect width="400" height="260" fill="url(#bg)"/>
  <rect width="400" height="260" fill="url(#dots)"/>
  <g filter="url(#glow)">
    <path d="M200,10 C160,10 130,40 130,75 C130,118 200,182 200,182 C200,182 270,118 270,75 C270,40 240,10 200,10 Z"
      fill="none" stroke="#00e676" stroke-width="3" opacity="0.9"/>
    <circle cx="200" cy="75" r="26" fill="#00e676" opacity="0.35"/>
    <line x1="96" y1="185" x2="96" y2="210" stroke="#69f0ae" stroke-width="1.2" opacity="0.22"/><line x1="128" y1="185" x2="128" y2="210" stroke="#69f0ae" stroke-width="1.2" opacity="0.22"/><line x1="160" y1="185" x2="160" y2="210" stroke="#69f0ae" stroke-width="1.2" opacity="0.22"/><line x1="192" y1="185" x2="192" y2="210" stroke="#69f0ae" stroke-width="1.2" opacity="0.22"/><line x1="224" y1="185" x2="224" y2="210" stroke="#69f0ae" stroke-width="1.2" opacity="0.22"/><line x1="256" y1="185" x2="256" y2="210" stroke="#69f0ae" stroke-width="1.2" opacity="0.22"/><line x1="288" y1="185" x2="288" y2="210" stroke="#69f0ae" stroke-width="1.2" opacity="0.22"/><line x1="320" y1="185" x2="320" y2="210" stroke="#69f0ae" stroke-width="1.2" opacity="0.22"/>
    <line x1="58" y1="190" x2="342" y2="190" stroke="#69f0ae" stroke-width="1.2" opacity="0.22"/><line x1="58" y1="205" x2="342" y2="205" stroke="#69f0ae" stroke-width="1.2" opacity="0.22"/><line x1="58" y1="220" x2="342" y2="220" stroke="#69f0ae" stroke-width="1.2" opacity="0.22"/>
    <path d="M58,208 Q128,185 200,182 Q272,179 342,205" fill="none" stroke="#00e676" stroke-width="2.5" opacity="0.38"/></g>
</svg>