<svg width="400" height="260" xmlns="http://www.w3.org/2000/svg" viewBox="0 0 400 260" role="img" aria-label="Corporate Shoots">
  <defs>
    <linearGradient id="bg" x1="0%" y1="0%" x2="100%" y2="100%">
      <stop offset="0%" stop-color="#0d1b2a"/>
      <stop offset="100%" stop-color="#1b3a5c"/>
    </linearGradient>
    <pattern id="dots" width="20" height="20" patternUnits="userSpaceOnUse">
      <circle cx="10" cy="10" r="1" fill="#ffffff" opacity="0.04"/>
    </pattern>
    <filter id="glow">
      <feGaussianBlur in="SourceGraphic" stdDeviation="2.5" result="blur"/>
      <feMerge><feMergeNode in="blur"/><feMergeNode in="SourceGraphic"/></feMerge>
    </filter>
  </defs>
  <rect width="400" height="260" fill="url(#bg)"/>
  <rect width="400" height="260" fill="url(#dots)"/>
  <g filter="url(#glow)">
    
      <circle cx="118" cy="68" r="22" fill="none" stroke="#90caf9" stroke-width="2.5" opacity="0.7"/>
      <path d="M88,162 Q88,118 118,118 Q148,118 148,162" fill="none" stroke="#90caf9" stroke-width="2.5" opacity="0.65"/>
    
      <circle cx="200" cy="68" r="22" fill="none" stroke="#64b5f6" stroke-width="2.5" opacity="0.9"/>
      <path d="M170,162 Q170,118 200,118 Q230,118 230,162" fill="none" stroke="#64b5f6" stroke-width="2.5" opacity="0.85"/>
    
      <circle cx="282" cy="68" r="22" fill="none" stroke="#90caf9" stroke-width="2.5" opacity="0.7"/>
      <path d="M252,162 Q252,118 282,118 Q312,118 312,162" fill="none" stroke="#90caf9" stroke-width="2.5" opacity="0.65"/>
    
    <circle cx="340" cy="45" r="24" fill="none" stroke="#64b5f6" stroke-width="2" opacity="0.65"/>
    <circle cx="340" cy="45" r="12" fill="#64b5f6" opacity="0.25"/>
    <circle cx="340" cy="45" r="5" fill="#64b5f6" opacity="0.5"/></g>
</svg>