<svg width="400" height="260" xmlns="http://www.w3.org/2000/svg" viewBox="0 0 400 260" role="img" aria-label="Event Highlights">
  <defs>
    <linearGradient id="bg" x1="0%" y1="0%" x2="100%" y2="100%">
      <stop offset="0%" stop-color="#1a0533"/>
      <stop offset="100%" stop-color="#3d0a6e"/>
    </linearGradient>
    <pattern id="dots" width="20" height="20" patternUnits="userSpaceOnUse">
      <circle cx="10" cy="10" r="1" fill="#ffffff" opacity="0.04"/>
    </pattern>
    <filter id="glow">
      <feGaussianBlur in="SourceGraphic" stdDeviation="2.5" result="blur"/>
      <feMerge><feMergeNode in="blur"/><feMergeNode in="SourceGraphic"/></feMerge>
    </filter>
  </defs>
  <rect width="400" height="260" fill="url(#bg)"/>
  <rect width="400" height="260" fill="url(#dots)"/>
  <g filter="url(#glow)">
    <rect x="78" y="22" width="14" height="14" rx="3" transform="rotate(0,85,29)" fill="#e040fb" opacity="0.5"/><rect x="118" y="8" width="14" height="14" rx="3" transform="rotate(35,125,15)" fill="#b388ff" opacity="0.6799999999999999"/><rect x="158" y="30" width="14" height="14" rx="3" transform="rotate(70,165,37)" fill="#e040fb" opacity="0.86"/><rect x="200" y="14" width="14" height="14" rx="3" transform="rotate(105,207,21)" fill="#b388ff" opacity="0.5"/><rect x="242" y="26" width="14" height="14" rx="3" transform="rotate(140,249,33)" fill="#e040fb" opacity="0.6799999999999999"/><rect x="282" y="6" width="14" height="14" rx="3" transform="rotate(175,289,13)" fill="#b388ff" opacity="0.86"/><rect x="322" y="20" width="14" height="14" rx="3" transform="rotate(210,329,27)" fill="#e040fb" opacity="0.5"/><rect x="95" y="145" width="14" height="14" rx="3" transform="rotate(245,102,152)" fill="#b388ff" opacity="0.6799999999999999"/><rect x="305" y="138" width="14" height="14" rx="3" transform="rotate(280,312,145)" fill="#e040fb" opacity="0.86"/>
    <polygon points="200,160 108,60 292,60" fill="#e040fb" opacity="0.1"/>
    <circle cx="200" cy="60" r="48" fill="#e040fb" opacity="0.15"/>
    <text x="200" y="80" font-family="sans-serif" font-size="44" text-anchor="middle" fill="#e040fb" opacity="0.85">🎬</text></g>
</svg>