<svg width="400" height="260" xmlns="http://www.w3.org/2000/svg" viewBox="0 0 400 260" role="img" aria-label="Cinematic Editing">
  <defs>
    <linearGradient id="bg" x1="0%" y1="0%" x2="100%" y2="100%">
      <stop offset="0%" stop-color="#1a0533"/>
      <stop offset="100%" stop-color="#3d0a6e"/>
    </linearGradient>
    <pattern id="dots" width="20" height="20" patternUnits="userSpaceOnUse">
      <circle cx="10" cy="10" r="1" fill="#ffffff" opacity="0.04"/>
    </pattern>
    <filter id="glow">
      <feGaussianBlur in="SourceGraphic" stdDeviation="2.5" result="blur"/>
      <feMerge><feMergeNode in="blur"/><feMergeNode in="SourceGraphic"/></feMerge>
    </filter>
  </defs>
  <rect width="400" height="260" fill="url(#bg)"/>
  <rect width="400" height="260" fill="url(#dots)"/>
  <g filter="url(#glow)">
    <circle cx="200" cy="88" r="72" fill="none" stroke="#e040fb" stroke-width="2.5" opacity="0.9"/>
    <circle cx="200" cy="88" r="26" fill="#e040fb" opacity="0.2"/>
    <circle cx="252.0" cy="88.0" r="13" fill="none" stroke="#e040fb" stroke-width="1.8" opacity="0.55"/><circle cx="226.0" cy="133.0" r="13" fill="none" stroke="#e040fb" stroke-width="1.8" opacity="0.55"/><circle cx="174.0" cy="133.0" r="13" fill="none" stroke="#e040fb" stroke-width="1.8" opacity="0.55"/><circle cx="148.0" cy="88.0" r="13" fill="none" stroke="#e040fb" stroke-width="1.8" opacity="0.55"/><circle cx="174.0" cy="43.0" r="13" fill="none" stroke="#e040fb" stroke-width="1.8" opacity="0.55"/><circle cx="226.0" cy="43.0" r="13" fill="none" stroke="#e040fb" stroke-width="1.8" opacity="0.55"/>
    <rect x="35" y="22" width="88" height="64" rx="7" fill="none" stroke="#b388ff" stroke-width="2" opacity="0.8"/>
    <rect x="35" y="22" width="88" height="20" rx="7" fill="#b388ff" opacity="0.22"/>
    <line x1="48" y1="22" x2="41" y2="42" stroke="#b388ff" stroke-width="2" opacity="0.55"/><line x1="62" y1="22" x2="55" y2="42" stroke="#b388ff" stroke-width="2" opacity="0.55"/><line x1="76" y1="22" x2="69" y2="42" stroke="#b388ff" stroke-width="2" opacity="0.55"/><line x1="90" y1="22" x2="83" y2="42" stroke="#b388ff" stroke-width="2" opacity="0.55"/><line x1="104" y1="22" x2="97" y2="42" stroke="#b388ff" stroke-width="2" opacity="0.55"/></g>
</svg>