<svg width="400" height="260" xmlns="http://www.w3.org/2000/svg" viewBox="0 0 400 260" role="img" aria-label="Color Grading">
  <defs>
    <linearGradient id="bg" x1="0%" y1="0%" x2="100%" y2="100%">
      <stop offset="0%" stop-color="#1a0533"/>
      <stop offset="100%" stop-color="#3d0a6e"/>
    </linearGradient>
    <pattern id="dots" width="20" height="20" patternUnits="userSpaceOnUse">
      <circle cx="10" cy="10" r="1" fill="#ffffff" opacity="0.04"/>
    </pattern>
    <filter id="glow">
      <feGaussianBlur in="SourceGraphic" stdDeviation="2.5" result="blur"/>
      <feMerge><feMergeNode in="blur"/><feMergeNode in="SourceGraphic"/></feMerge>
    </filter>
  </defs>
  <rect width="400" height="260" fill="url(#bg)"/>
  <rect width="400" height="260" fill="url(#dots)"/>
  <g filter="url(#glow)">
    <path d="M200,82 L200.0,14.0 A68,68,0,0,1,258.9,48.0 Z" fill="#ff1744" opacity="0.75"/><path d="M200,82 L258.9,48.0 A68,68,0,0,1,258.9,116.0 Z" fill="#ff9100" opacity="0.75"/><path d="M200,82 L258.9,116.0 A68,68,0,0,1,200.0,150.0 Z" fill="#ffea00" opacity="0.75"/><path d="M200,82 L200.0,150.0 A68,68,0,0,1,141.1,116.0 Z" fill="#00e676" opacity="0.75"/><path d="M200,82 L141.1,116.0 A68,68,0,0,1,141.1,48.0 Z" fill="#00b0ff" opacity="0.75"/><path d="M200,82 L141.1,48.0 A68,68,0,0,1,200.0,14.0 Z" fill="#d500f9" opacity="0.75"/>
    <circle cx="200" cy="82" r="24" fill="#0a0a0a" opacity="0.9"/>
    <circle cx="200" cy="82" r="10" fill="#e040fb" opacity="0.5"/>
    <rect x="75" y="178" width="13" height="18" rx="2" fill="#e040fb" opacity="0.65"/><rect x="103" y="173" width="13" height="23" rx="2" fill="#b388ff" opacity="0.65"/><rect x="131" y="168" width="13" height="28" rx="2" fill="#b388ff" opacity="0.65"/><rect x="159" y="163" width="13" height="33" rx="2" fill="#e040fb" opacity="0.65"/><rect x="187" y="158" width="13" height="38" rx="2" fill="#b388ff" opacity="0.65"/><rect x="215" y="153" width="13" height="43" rx="2" fill="#b388ff" opacity="0.65"/><rect x="243" y="148" width="13" height="48" rx="2" fill="#e040fb" opacity="0.65"/><rect x="271" y="143" width="13" height="53" rx="2" fill="#b388ff" opacity="0.65"/><rect x="299" y="138" width="13" height="58" rx="2" fill="#b388ff" opacity="0.65"/><rect x="327" y="133" width="13" height="63" rx="2" fill="#e040fb" opacity="0.65"/></g>
</svg>