<svg width="400" height="260" xmlns="http://www.w3.org/2000/svg" viewBox="0 0 400 260" role="img" aria-label="Corporate Videos">
  <defs>
    <linearGradient id="bg" x1="0%" y1="0%" x2="100%" y2="100%">
      <stop offset="0%" stop-color="#1a0533"/>
      <stop offset="100%" stop-color="#3d0a6e"/>
    </linearGradient>
    <pattern id="dots" width="20" height="20" patternUnits="userSpaceOnUse">
      <circle cx="10" cy="10" r="1" fill="#ffffff" opacity="0.04"/>
    </pattern>
    <filter id="glow">
      <feGaussianBlur in="SourceGraphic" stdDeviation="2.5" result="blur"/>
      <feMerge><feMergeNode in="blur"/><feMergeNode in="SourceGraphic"/></feMerge>
    </filter>
  </defs>
  <rect width="400" height="260" fill="url(#bg)"/>
  <rect width="400" height="260" fill="url(#dots)"/>
  <g filter="url(#glow)">
    <rect x="85" y="22" width="85" height="148" rx="5" fill="none" stroke="#e040fb" stroke-width="2.5" opacity="0.85"/>
    <rect x="215" y="48" width="68" height="122" rx="5" fill="none" stroke="#b388ff" stroke-width="2" opacity="0.7"/>
    <rect x="97" y="38" width="14" height="12" rx="2" fill="#e040fb" opacity="0.4"/><rect x="120" y="38" width="14" height="12" rx="2" fill="#e040fb" opacity="0.4"/><rect x="97" y="60" width="14" height="12" rx="2" fill="#e040fb" opacity="0.4"/><rect x="120" y="60" width="14" height="12" rx="2" fill="#e040fb" opacity="0.4"/><rect x="97" y="82" width="14" height="12" rx="2" fill="#e040fb" opacity="0.4"/><rect x="120" y="82" width="14" height="12" rx="2" fill="#e040fb" opacity="0.4"/><rect x="97" y="104" width="14" height="12" rx="2" fill="#e040fb" opacity="0.4"/><rect x="120" y="104" width="14" height="12" rx="2" fill="#e040fb" opacity="0.4"/><rect x="97" y="126" width="14" height="12" rx="2" fill="#e040fb" opacity="0.4"/><rect x="120" y="126" width="14" height="12" rx="2" fill="#e040fb" opacity="0.4"/>
    <rect x="224" y="64" width="12" height="10" rx="2" fill="#b388ff" opacity="0.35"/><rect x="244" y="64" width="12" height="10" rx="2" fill="#b388ff" opacity="0.35"/><rect x="224" y="86" width="12" height="10" rx="2" fill="#b388ff" opacity="0.35"/><rect x="244" y="86" width="12" height="10" rx="2" fill="#b388ff" opacity="0.35"/><rect x="224" y="108" width="12" height="10" rx="2" fill="#b388ff" opacity="0.35"/><rect x="244" y="108" width="12" height="10" rx="2" fill="#b388ff" opacity="0.35"/>
    <rect x="160" y="95" width="48" height="34" rx="6" fill="none" stroke="#b388ff" stroke-width="2" opacity="0.85"/>
    <path d="M172,95 L172,84 L196,84 L196,95" fill="none" stroke="#b388ff" stroke-width="2" opacity="0.7"/></g>
</svg>