<svg width="400" height="260" xmlns="http://www.w3.org/2000/svg" viewBox="0 0 400 260" role="img" aria-label="Website Maintenance">
  <defs>
    <linearGradient id="bg" x1="0%" y1="0%" x2="100%" y2="100%">
      <stop offset="0%" stop-color="#070d1a"/>
      <stop offset="100%" stop-color="#0d2137"/>
    </linearGradient>
    <pattern id="dots" width="20" height="20" patternUnits="userSpaceOnUse">
      <circle cx="10" cy="10" r="1" fill="#ffffff" opacity="0.04"/>
    </pattern>
    <filter id="glow">
      <feGaussianBlur in="SourceGraphic" stdDeviation="2.5" result="blur"/>
      <feMerge><feMergeNode in="blur"/><feMergeNode in="SourceGraphic"/></feMerge>
    </filter>
  </defs>
  <rect width="400" height="260" fill="url(#bg)"/>
  <rect width="400" height="260" fill="url(#dots)"/>
  <g filter="url(#glow)">
    <rect x="35" y="14" width="330" height="170" rx="13" fill="none" stroke="#448aff" stroke-width="2.5" opacity="0.9"/>
    <rect x="35" y="14" width="330" height="32" rx="13" fill="#448aff" opacity="0.2"/>
    <circle cx="200" cy="116" r="52" fill="none" stroke="#448aff" stroke-width="3" opacity="0.8"/>
    <circle cx="200" cy="116" r="22" fill="#448aff" opacity="0.24"/>
    <rect x="245.0" y="109.0" width="14" height="14" rx="3.5" fill="#448aff" opacity="0.65" transform="rotate(0,252.0,116.0)"/><rect x="229.8" y="145.8" width="14" height="14" rx="3.5" fill="#448aff" opacity="0.65" transform="rotate(45,236.8,152.8)"/><rect x="193.0" y="161.0" width="14" height="14" rx="3.5" fill="#448aff" opacity="0.65" transform="rotate(90,200.0,168.0)"/><rect x="156.2" y="145.8" width="14" height="14" rx="3.5" fill="#448aff" opacity="0.65" transform="rotate(135,163.2,152.8)"/><rect x="141.0" y="109.0" width="14" height="14" rx="3.5" fill="#448aff" opacity="0.65" transform="rotate(180,148.0,116.0)"/><rect x="156.2" y="72.2" width="14" height="14" rx="3.5" fill="#448aff" opacity="0.65" transform="rotate(225,163.2,79.2)"/><rect x="193.0" y="57.0" width="14" height="14" rx="3.5" fill="#448aff" opacity="0.65" transform="rotate(270,200.0,64.0)"/><rect x="229.8" y="72.2" width="14" height="14" rx="3.5" fill="#448aff" opacity="0.65" transform="rotate(315,236.8,79.2)"/>
    <circle cx="310" cy="48" r="22" fill="#82b1ff" opacity="0.35"/>
    <text x="302" y="56" font-family="sans-serif" font-size="20" fill="#82b1ff" opacity="0.9">✓</text></g>
</svg>