<svg width="400" height="260" xmlns="http://www.w3.org/2000/svg" viewBox="0 0 400 260" role="img" aria-label="Restaurant Websites">
  <defs>
    <linearGradient id="bg" x1="0%" y1="0%" x2="100%" y2="100%">
      <stop offset="0%" stop-color="#070d1a"/>
      <stop offset="100%" stop-color="#0d2137"/>
    </linearGradient>
    <pattern id="dots" width="20" height="20" patternUnits="userSpaceOnUse">
      <circle cx="10" cy="10" r="1" fill="#ffffff" opacity="0.04"/>
    </pattern>
    <filter id="glow">
      <feGaussianBlur in="SourceGraphic" stdDeviation="2.5" result="blur"/>
      <feMerge><feMergeNode in="blur"/><feMergeNode in="SourceGraphic"/></feMerge>
    </filter>
  </defs>
  <rect width="400" height="260" fill="url(#bg)"/>
  <rect width="400" height="260" fill="url(#dots)"/>
  <g filter="url(#glow)">
    <rect x="35" y="14" width="330" height="170" rx="13" fill="none" stroke="#448aff" stroke-width="2.5" opacity="0.9"/>
    <rect x="35" y="14" width="330" height="32" rx="13" fill="#448aff" opacity="0.2"/>
    <rect x="44" y="54" width="312" height="82" rx="7" fill="#448aff" opacity="0.12"/>
    <text x="200" y="106" font-family="sans-serif" font-size="48" text-anchor="middle" fill="#82b1ff" opacity="0.75">🍽</text>
    
      <rect x="50" y="146" width="90" height="28" rx="7" fill="#448aff" opacity="0.14"/>
      <rect x="58" y="158" width="60" height="8" rx="2" fill="#448aff" opacity="0.45"/>
    
      <rect x="154" y="146" width="90" height="28" rx="7" fill="#448aff" opacity="0.14"/>
      <rect x="162" y="158" width="60" height="8" rx="2" fill="#448aff" opacity="0.45"/>
    
      <rect x="258" y="146" width="90" height="28" rx="7" fill="#448aff" opacity="0.14"/>
      <rect x="266" y="158" width="60" height="8" rx="2" fill="#448aff" opacity="0.45"/>
    </g>
</svg>