<svg width="400" height="260" xmlns="http://www.w3.org/2000/svg" viewBox="0 0 400 260" role="img" aria-label="Website Redesign">
  <defs>
    <linearGradient id="bg" x1="0%" y1="0%" x2="100%" y2="100%">
      <stop offset="0%" stop-color="#070d1a"/>
      <stop offset="100%" stop-color="#0d2137"/>
    </linearGradient>
    <pattern id="dots" width="20" height="20" patternUnits="userSpaceOnUse">
      <circle cx="10" cy="10" r="1" fill="#ffffff" opacity="0.04"/>
    </pattern>
    <filter id="glow">
      <feGaussianBlur in="SourceGraphic" stdDeviation="2.5" result="blur"/>
      <feMerge><feMergeNode in="blur"/><feMergeNode in="SourceGraphic"/></feMerge>
    </filter>
  </defs>
  <rect width="400" height="260" fill="url(#bg)"/>
  <rect width="400" height="260" fill="url(#dots)"/>
  <g filter="url(#glow)">
    <rect x="30" y="25" width="140" height="148" rx="11" fill="none" stroke="#82b1ff" stroke-width="2" opacity="0.55"/>
    <rect x="230" y="25" width="140" height="148" rx="11" fill="none" stroke="#448aff" stroke-width="2.5" opacity="0.9"/>
    <line x1="175" y1="99" x2="225" y2="99" stroke="#448aff" stroke-width="3.5" opacity="0.85"/>
    <polygon points="218,91 232,99 218,107" fill="#448aff" opacity="0.9"/>
    <rect x="42" y="42" width="116" height="26" rx="5" fill="#82b1ff" opacity="0.1"/><rect x="42" y="82" width="116" height="26" rx="5" fill="#82b1ff" opacity="0.15000000000000002"/><rect x="42" y="122" width="116" height="26" rx="5" fill="#82b1ff" opacity="0.2"/>
    <rect x="242" y="42" width="116" height="26" rx="5" fill="#448aff" opacity="0.22"/><rect x="242" y="82" width="116" height="26" rx="5" fill="#448aff" opacity="0.3"/><rect x="242" y="122" width="116" height="26" rx="5" fill="#448aff" opacity="0.38"/></g>
</svg>